<svg width="1323" height="919" viewBox="0 0 1323 919" fill="none" xmlns="http://www.w3.org/2000/svg">
<g clip-path="url(#clip0_30_2)">
<path d="M288.22 915.76L15.64 782.69C1.81 775.94 -3.92 759.26 2.83 745.43C9.58 731.6 26.26 725.87 40.09 732.62L312.66 865.69C326.49 872.44 332.22 889.12 325.47 902.95C318.72 916.78 302.04 922.51 288.21 915.76H288.22Z" fill="#ED2C85"/>
<path d="M151.93 849.22C138.1 842.47 132.37 825.79 139.12 811.96L239.25 606.86C246 593.03 262.68 587.3 276.51 594.05C290.34 600.8 296.07 617.48 289.32 631.31L189.19 836.41C182.44 850.24 165.76 855.97 151.93 849.22Z" fill="#ED2C85"/>
<path d="M260.71 629.86L257.98 628.53C195.32 597.94 148.32 544.78 125.64 478.83C102.96 412.89 107.32 342.06 137.91 279.4C144.66 265.57 161.34 259.84 175.17 266.59C189 273.34 194.73 290.02 187.98 303.85C163.92 353.14 160.49 408.85 178.33 460.72C196.17 512.59 233.14 554.41 282.43 578.47L285.16 579.8C334.45 603.86 390.16 607.29 442.03 589.45C493.9 571.61 535.72 534.64 559.78 485.35C566.53 471.52 583.21 465.79 597.04 472.54C610.87 479.29 616.6 495.97 609.85 509.8C579.26 572.46 526.1 619.46 460.15 642.14C394.21 664.82 323.38 660.46 260.72 629.87L260.71 629.86Z" fill="#ED2C85"/>
<path d="M441.25 417.44L456.86 385.47L529.74 421.05L545.45 388.87L472.57 353.29L488.18 321.32L561.06 356.9L576.77 324.72L503.89 289.14L519.5 257.17L592.38 292.75L608.09 260.57L535.21 224.99L550.82 193.02L623.7 228.6L626.59 222.69C662.97 148.17 632.05 58.28 557.54 21.9L554.81 20.57C480.29 -15.81 390.4 15.11 354.02 89.62L351.13 95.53L424.01 131.11L408.4 163.08L335.52 127.5L319.81 159.68L392.69 195.26L377.08 227.23L304.2 191.65L288.49 223.83L361.37 259.41L345.76 291.38L272.88 255.8L257.17 287.98L330.05 323.56L314.44 355.53L241.56 319.95L237.6 328.07C201.22 402.59 232.14 492.48 306.65 528.86L309.38 530.19C383.9 566.57 473.8 535.65 510.17 461.14L514.13 453.02L441.25 417.44Z" fill="#ED2C85"/>
<path d="M1307.95 747.3L1044.01 896.77C1030.62 904.35 1013.62 899.64 1006.04 886.26C998.46 872.87 1003.16 855.87 1016.55 848.29L1280.49 698.82C1293.88 691.24 1310.88 695.95 1318.46 709.33C1326.04 722.71 1321.34 739.72 1307.95 747.3Z" fill="#ED2C85"/>
<path d="M1175.98 822.04C1162.59 829.62 1145.59 824.91 1138.01 811.53L1025.54 612.93C1017.96 599.54 1022.67 582.54 1036.05 574.96C1049.44 567.38 1066.44 572.09 1074.02 585.47L1186.49 784.07C1194.07 797.46 1189.36 814.46 1175.98 822.04Z" fill="#ED2C85"/>
<path d="M1001.99 511.72L999.35 513.21C927.19 554.07 835.58 528.7 794.71 456.55L663.95 225.65C623.09 153.49 648.46 61.88 720.61 21.01L723.25 19.52C795.41 -21.34 887.02 4.03002 927.89 76.18L1058.65 307.08C1099.51 379.24 1074.14 470.85 1001.99 511.72Z" fill="#ED2C85"/>
<path d="M1056.65 608.24L1054.01 609.73C993.33 644.09 922.9 652.77 855.7 634.16C788.5 615.55 732.56 571.89 698.2 511.21C690.62 497.82 695.33 480.82 708.71 473.24C722.1 465.66 739.1 470.37 746.68 483.75C773.71 531.48 817.7 565.82 870.57 580.46C923.43 595.1 978.83 588.27 1026.56 561.24L1029.2 559.75C1076.93 532.72 1111.27 488.73 1125.91 435.86C1140.55 383 1133.72 327.6 1106.69 279.88C1099.11 266.49 1103.82 249.49 1117.2 241.91C1130.59 234.33 1147.59 239.04 1155.17 252.42C1189.53 313.1 1198.21 383.52 1179.6 450.73C1160.99 517.93 1117.33 573.87 1056.65 608.23V608.24Z" fill="#ED2C85"/>
<path d="M789.54 300.477C793.091 294.009 790.725 285.888 784.257 282.337C777.788 278.787 769.667 281.153 766.117 287.621C762.566 294.09 764.932 302.211 771.4 305.761C777.869 309.311 785.99 306.946 789.54 300.477Z" fill="white"/>
<path d="M834.775 277.199C841.196 273.563 843.454 265.411 839.818 258.99C836.183 252.569 828.03 250.312 821.61 253.947C815.189 257.583 812.931 265.735 816.567 272.156C820.203 278.576 828.355 280.834 834.775 277.199Z" fill="white"/>
<path d="M878.54 250.37C885.918 250.37 891.9 244.389 891.9 237.01C891.9 229.632 885.918 223.65 878.54 223.65C871.161 223.65 865.18 229.632 865.18 237.01C865.18 244.389 871.161 250.37 878.54 250.37Z" fill="white"/>
<path d="M928.9 221.85C936.278 221.85 942.26 215.869 942.26 208.49C942.26 201.111 936.278 195.13 928.9 195.13C921.521 195.13 915.54 201.111 915.54 208.49C915.54 215.869 921.521 221.85 928.9 221.85Z" fill="white"/>
<path d="M744.757 295.556C751.177 291.92 753.435 283.768 749.8 277.347C746.164 270.926 738.012 268.669 731.591 272.304C725.17 275.94 722.913 284.092 726.548 290.513C730.184 296.933 738.336 299.191 744.757 295.556Z" fill="white"/>
<path d="M788.53 268.73C795.908 268.73 801.89 262.749 801.89 255.37C801.89 247.991 795.908 242.01 788.53 242.01C781.151 242.01 775.17 247.991 775.17 255.37C775.17 262.749 781.151 268.73 788.53 268.73Z" fill="white"/>
<path d="M840.519 240.154C847.842 239.252 853.048 232.584 852.146 225.261C851.244 217.938 844.576 212.732 837.253 213.634C829.93 214.536 824.724 221.203 825.626 228.527C826.528 235.85 833.196 241.055 840.519 240.154Z" fill="white"/>
<path d="M889.25 211.69C896.628 211.69 902.61 205.708 902.61 198.33C902.61 190.951 896.628 184.97 889.25 184.97C881.871 184.97 875.89 190.951 875.89 198.33C875.89 205.708 881.871 211.69 889.25 211.69Z" fill="white"/>
<path d="M946.206 181.48C952.627 177.844 954.885 169.692 951.249 163.272C947.613 156.851 939.461 154.593 933.04 158.229C926.62 161.864 924.362 170.017 927.998 176.437C931.633 182.858 939.785 185.116 946.206 181.48Z" fill="white"/>
<path d="M771.909 343.486C778.329 339.85 780.587 331.698 776.952 325.278C773.316 318.857 765.164 316.599 758.743 320.235C752.322 323.87 750.065 332.023 753.7 338.443C757.336 344.864 765.488 347.122 771.909 343.486Z" fill="white"/>
<path d="M822.273 314.973C828.694 311.338 830.952 303.185 827.316 296.765C823.681 290.344 815.528 288.086 809.108 291.722C802.687 295.358 800.429 303.51 804.065 309.93C807.701 316.351 815.853 318.609 822.273 314.973Z" fill="white"/>
<path d="M867.664 288.096C874.988 287.194 880.193 280.527 879.291 273.203C878.39 265.88 871.722 260.675 864.399 261.576C857.076 262.478 851.87 269.146 852.772 276.469C853.673 283.792 860.341 288.998 867.664 288.096Z" fill="white"/>
<path d="M916.4 259.63C923.779 259.63 929.76 253.649 929.76 246.27C929.76 238.892 923.779 232.91 916.4 232.91C909.022 232.91 903.04 238.892 903.04 246.27C903.04 253.649 909.022 259.63 916.4 259.63Z" fill="white"/>
<path d="M966.76 231.11C974.139 231.11 980.12 225.129 980.12 217.75C980.12 210.371 974.139 204.39 966.76 204.39C959.382 204.39 953.4 210.371 953.4 217.75C953.4 225.129 959.382 231.11 966.76 231.11Z" fill="white"/>
<path d="M763.966 246.603C764.248 239.23 758.5 233.025 751.126 232.743C743.753 232.461 737.548 238.209 737.266 245.582C736.984 252.956 742.732 259.161 750.105 259.443C757.479 259.725 763.684 253.977 763.966 246.603Z" fill="white"/>
<path d="M801.03 230.95C808.408 230.95 814.39 224.969 814.39 217.59C814.39 210.211 808.408 204.23 801.03 204.23C793.651 204.23 787.67 210.211 787.67 217.59C787.67 224.969 793.651 230.95 801.03 230.95Z" fill="white"/>
<path d="M851.39 202.43C858.769 202.43 864.75 196.448 864.75 189.07C864.75 181.691 858.769 175.71 851.39 175.71C844.011 175.71 838.03 181.691 838.03 189.07C838.03 196.448 844.011 202.43 851.39 202.43Z" fill="white"/>
<path d="M901.75 173.91C909.129 173.91 915.11 167.928 915.11 160.55C915.11 153.171 909.129 147.19 901.75 147.19C894.371 147.19 888.39 153.171 888.39 160.55C888.39 167.928 894.371 173.91 901.75 173.91Z" fill="white"/>
<path d="M723.929 239.535C725.898 232.424 721.73 225.063 714.619 223.093C707.508 221.124 700.147 225.292 698.178 232.403C696.209 239.514 700.377 246.875 707.487 248.844C714.598 250.813 721.959 246.645 723.929 239.535Z" fill="white"/>
<path d="M761.38 220.79C768.759 220.79 774.74 214.808 774.74 207.43C774.74 200.051 768.759 194.07 761.38 194.07C754.001 194.07 748.02 200.051 748.02 207.43C748.02 214.808 754.001 220.79 761.38 220.79Z" fill="white"/>
<path d="M813.373 192.211C820.697 191.309 825.902 184.642 825 177.319C824.099 169.995 817.431 164.79 810.108 165.692C802.785 166.593 797.579 173.261 798.481 180.584C799.382 187.907 806.05 193.113 813.373 192.211Z" fill="white"/>
<path d="M868.7 162.062C875.12 158.427 877.378 150.274 873.742 143.854C870.107 137.433 861.955 135.175 855.534 138.811C849.113 142.447 846.855 150.599 850.491 157.019C854.127 163.44 862.279 165.698 868.7 162.062Z" fill="white"/>
<path d="M919.059 133.541C925.48 129.905 927.738 121.753 924.102 115.332C920.467 108.912 912.314 106.654 905.894 110.29C899.473 113.925 897.215 122.077 900.851 128.498C904.487 134.919 912.639 137.176 919.059 133.541Z" fill="white"/>
<path d="M725.149 211.469C732.472 210.567 737.677 203.899 736.776 196.576C735.874 189.253 729.206 184.047 721.883 184.949C714.56 185.851 709.354 192.518 710.256 199.842C711.158 207.165 717.825 212.37 725.149 211.469Z" fill="white"/>
<path d="M773.88 183.01C781.259 183.01 787.24 177.029 787.24 169.65C787.24 162.272 781.259 156.29 773.88 156.29C766.501 156.29 760.52 162.272 760.52 169.65C760.52 177.029 766.501 183.01 773.88 183.01Z" fill="white"/>
<path d="M824.24 154.49C831.619 154.49 837.6 148.509 837.6 141.13C837.6 133.752 831.619 127.77 824.24 127.77C816.862 127.77 810.88 133.752 810.88 141.13C810.88 148.509 816.862 154.49 824.24 154.49Z" fill="white"/>
<path d="M881.202 124.278C887.622 120.642 889.88 112.49 886.244 106.069C882.609 99.6485 874.457 97.3908 868.036 101.026C861.615 104.662 859.358 112.814 862.993 119.235C866.629 125.656 874.781 127.913 881.202 124.278Z" fill="white"/>
<path d="M683.87 201.37C691.249 201.37 697.23 195.388 697.23 188.01C697.23 180.631 691.249 174.65 683.87 174.65C676.491 174.65 670.51 180.631 670.51 188.01C670.51 195.388 676.491 201.37 683.87 201.37Z" fill="white"/>
<path d="M734.23 172.85C741.609 172.85 747.59 166.869 747.59 159.49C747.59 152.111 741.609 146.13 734.23 146.13C726.851 146.13 720.87 152.111 720.87 159.49C720.87 166.869 726.851 172.85 734.23 172.85Z" fill="white"/>
<path d="M796.305 137.408C799.855 130.94 797.489 122.818 791.021 119.268C784.553 115.718 776.431 118.083 772.881 124.552C769.331 131.02 771.696 139.142 778.165 142.692C784.633 146.242 792.755 143.876 796.305 137.408Z" fill="white"/>
<path d="M841.561 114.108C847.982 110.473 850.24 102.32 846.604 95.8998C842.969 89.4791 834.816 87.2214 828.396 90.857C821.975 94.4926 819.717 102.645 823.353 109.065C826.988 115.486 835.141 117.744 841.561 114.108Z" fill="white"/>
<path d="M885.32 87.2899C892.698 87.2899 898.68 81.3085 898.68 73.9299C898.68 66.5514 892.698 60.5699 885.32 60.5699C877.941 60.5699 871.96 66.5514 871.96 73.9299C871.96 81.3085 877.941 87.2899 885.32 87.2899Z" fill="white"/>
<path d="M698.013 163.525C705.336 162.623 710.542 155.956 709.64 148.632C708.738 141.309 702.071 136.103 694.747 137.005C687.424 137.907 682.219 144.575 683.12 151.898C684.022 159.221 690.69 164.427 698.013 163.525Z" fill="white"/>
<path d="M746.74 135.07C754.119 135.07 760.1 129.089 760.1 121.71C760.1 114.331 754.119 108.35 746.74 108.35C739.362 108.35 733.38 114.331 733.38 121.71C733.38 129.089 739.362 135.07 746.74 135.07Z" fill="white"/>
<path d="M803.694 104.855C810.114 101.22 812.372 93.0673 808.737 86.6466C805.101 80.2259 796.949 77.9682 790.528 81.6038C784.107 85.2394 781.85 93.3916 785.485 99.8123C789.121 106.233 797.273 108.491 803.694 104.855Z" fill="white"/>
<path d="M726.187 85.4275C732.608 81.7919 734.865 73.6397 731.23 67.219C727.594 60.7983 719.442 58.5406 713.021 62.1762C706.601 65.8118 704.343 73.964 707.978 80.3847C711.614 86.8054 719.766 89.0631 726.187 85.4275Z" fill="white"/>
<path d="M776.547 56.906C782.967 53.2704 785.225 45.1182 781.59 38.6975C777.954 32.2769 769.802 30.0191 763.381 33.6547C756.96 37.2903 754.703 45.4425 758.338 51.8632C761.974 58.2839 770.126 60.5416 776.547 56.906Z" fill="white"/>
<path d="M854.054 76.3337C860.474 72.6981 862.732 64.5459 859.096 58.1252C855.461 51.7046 847.309 49.4468 840.888 53.0824C834.467 56.718 832.209 64.8703 835.845 71.2909C839.481 77.7116 847.633 79.9693 854.054 76.3337Z" fill="white"/>
<path d="M707.09 124.91C714.469 124.91 720.45 118.929 720.45 111.55C720.45 104.172 714.469 98.1901 707.09 98.1901C699.712 98.1901 693.73 104.172 693.73 111.55C693.73 118.929 699.712 124.91 707.09 124.91Z" fill="white"/>
<path d="M769.07 76.4501C765.44 70.0301 757.29 67.7701 750.87 71.4101C744.45 75.0501 742.19 83.1901 745.83 89.6101C749.46 96.0301 757.61 98.2901 764.03 94.6501C770.45 91.0101 772.71 82.8701 769.07 76.4501Z" fill="white"/>
<path d="M807.81 67.87C815.188 67.87 821.17 61.8885 821.17 54.51C821.17 47.1315 815.188 41.15 807.81 41.15C800.431 41.15 794.45 47.1315 794.45 54.51C794.45 61.8885 800.431 67.87 807.81 67.87Z" fill="white"/>
</g>
<defs>
<clipPath id="clip0_30_2">
<rect width="1322.08" height="918.59" fill="white"/>
</clipPath>
</defs>
</svg>
