<svg width="47" height="54" viewBox="0 0 47 54" fill="none" xmlns="http://www.w3.org/2000/svg">
<path d="M31.1138 47.2139L16.6473 46.9598C15.9134 46.947 15.3268 46.3396 15.3367 45.6033C15.3466 44.8669 15.9496 44.2809 16.6835 44.2937L31.1496 44.548C31.8835 44.5608 32.47 45.1682 32.4602 45.9045C32.4503 46.6408 31.8473 47.2269 31.1133 47.2141L31.1138 47.2139Z" fill="#ED2C85"/>
<path d="M23.8805 47.0866C23.1465 47.0738 22.56 46.4664 22.5698 45.7301L22.7172 34.8095C22.727 34.0732 23.33 33.4871 24.064 33.4999C24.7979 33.5128 25.3845 34.1201 25.3746 34.8565L25.2273 45.777C25.2174 46.5134 24.6144 47.0994 23.8805 47.0866Z" fill="#ED2C85"/>
<path d="M24.1109 35.3726L23.966 35.3702C20.6405 35.3117 17.5314 33.9577 15.2114 31.5567C12.8915 29.1563 11.6387 25.9965 11.6837 22.6602C11.6935 21.9238 12.2965 21.3378 13.0305 21.3506C13.7645 21.3634 14.351 21.9708 14.3411 22.7071C14.3059 25.3315 15.2912 27.8168 17.1161 29.7051C18.9409 31.5933 21.3866 32.6587 24.0024 32.7045L24.1473 32.7069C26.7632 32.7527 29.2363 31.774 31.1111 29.9506C32.9859 28.1272 34.038 25.6777 34.0733 23.0533C34.0831 22.3169 34.6861 21.7309 35.4201 21.7437C36.154 21.7565 36.7406 22.3639 36.7307 23.1002C36.6857 26.4366 35.3485 29.5506 32.9647 31.8688C30.5814 34.1868 27.437 35.4312 24.1115 35.3728L24.1109 35.3726Z" fill="#ED2C85"/>
<path d="M27.5782 22.5072L27.6013 20.8049L31.4692 20.8729L31.4923 19.1594L27.6244 19.0915L27.6475 17.3892L31.5154 17.4572L31.5385 15.7437L27.6706 15.6758L27.6936 13.9735L31.5615 14.0414L31.5847 12.328L27.7167 12.26L27.7398 10.5577L31.6077 10.6257L31.6122 10.3109C31.6657 6.34312 28.5031 3.07082 24.5486 3.00114L24.4037 2.99872C20.4488 2.92925 17.1998 6.0893 17.1461 10.0567L17.1417 10.3715L21.0096 10.4394L20.9866 12.1417L17.1186 12.0738L17.0955 13.7872L20.9635 13.8551L20.9404 15.5574L17.0725 15.4895L17.0494 17.2029L20.9173 17.2709L20.8942 18.9732L17.0263 18.9052L17.0032 20.6186L20.8711 20.6866L20.8481 22.3889L16.9801 22.3209L16.9745 22.7532C16.921 26.721 20.0836 29.9933 24.0381 30.063L24.1829 30.0654C28.1379 30.1349 31.3872 26.9746 31.4405 23.0074L31.4462 22.5752L27.5782 22.5072Z" fill="#ED2C85"/>
</svg>
