<svg width="7160" height="2688" viewBox="0 0 7160 2688" fill="none" xmlns="http://www.w3.org/2000/svg">
<rect width="4032" height="2688" fill="#D9D9D9"/>
<g clip-path="url(#clip0_369_389)">
<path d="M7159.92 -35.2961H1.38074V2688.21H7159.92V-35.2961Z" fill="#6C57D9"/>
<mask id="mask0_369_389" style="mask-type:luminance" maskUnits="userSpaceOnUse" x="1" y="-36" width="1592" height="2051">
<path d="M1.46808 2014.14L1592.32 2014.14L1592.32 -35.3833H1.46808L1.46808 2014.14Z" fill="white"/>
</mask>
<g mask="url(#mask0_369_389)">
<path d="M-302.683 1850.21C-30.4837 1971.98 292.262 1975.39 566.905 1859.38C906.238 1716.04 1156.09 1409.39 1495.16 1265.53" stroke="white" stroke-width="1.5" stroke-miterlimit="10"/>
<path d="M-129.132 513.508C123.163 564.225 274.802 441.842 426.092 307.674C580.611 170.626 824.7 -75.7993 1159.58 -56.4205" stroke="white" stroke-width="1.5" stroke-miterlimit="10"/>
</g>
<mask id="mask1_369_389" style="mask-type:luminance" maskUnits="userSpaceOnUse" x="2545" y="-36" width="3862" height="974">
<path d="M2545.89 937.922L6406.01 937.922V-35.3828L2545.89 -35.3828V937.922Z" fill="white"/>
</mask>
<g mask="url(#mask1_369_389)">
<path d="M6345.07 -206.213C6241.1 -9.45739 5988.72 204.495 5734.5 266.472C5075.22 427.264 4612.27 118.513 3870.31 346.868C3521.55 454.15 3312.56 717.859 2974.71 845.567" stroke="white" stroke-width="1.5" stroke-miterlimit="10"/>
<path d="M2556.02 222.564C3072.48 369.913 3284.45 -89.5041 3607.98 -40.6207" stroke="white" stroke-width="1.5" stroke-miterlimit="10"/>
</g>
<mask id="mask2_369_389" style="mask-type:luminance" maskUnits="userSpaceOnUse" x="214" y="-35" width="3332" height="2724">
<path d="M3545.34 -35H214V2688.51H3545.34V-35Z" fill="white"/>
</mask>
<g mask="url(#mask2_369_389)">
<path d="M3326.05 1229.51C3530.41 1715.29 2874.62 2285.74 2534.85 2518.38C2185.74 2757.47 1619.78 3082.02 1225.89 2816.83C1079.83 2718.45 1010.69 2478.92 955.957 2309.4C846.396 1970.44 441.415 1952.46 326.267 1630.27C53.9804 868.297 1243.52 42.8645 1814.55 -155.899C2197.27 -289.107 2708.93 -231.232 2843.8 223.995C2872 319.231 2873.57 417.871 2882.91 514.066C2914.6 839.752 3209.41 952.359 3326.05 1229.51Z" fill="#8C75FF"/>
</g>
<path d="M1144.35 1396.58V2180.28C1144.35 2262.77 1211.22 2329.64 1293.72 2329.64H1533.62C1470.5 2329.64 1413.32 2304.06 1372.02 2262.69C1330.65 2221.31 1305.07 2164.22 1305.07 2101.11V1398.85C1305.07 1355.55 1271.81 1318.36 1228.59 1316.27C1182.5 1314.08 1144.35 1350.92 1144.35 1396.58Z" fill="#1A0852"/>
<path d="M1988.36 300.364L1319.99 858.683L1875.31 1523.24L2543.67 964.917C2727.17 811.545 2751.7 538.583 2598.32 355.008C2521.67 263.265 2414.99 211.239 2304.64 201.375C2194.3 191.511 2080.11 223.721 1988.36 300.364Z" fill="#2A4987"/>
<mask id="mask3_369_389" style="mask-type:luminance" maskUnits="userSpaceOnUse" x="1319" y="199" width="1381" height="1325">
<path d="M1988.36 300.364L1319.99 858.683L1875.31 1523.24L2543.67 964.917C2727.17 811.545 2751.7 538.583 2598.32 355.008C2521.67 263.265 2414.99 211.239 2304.64 201.375C2194.3 191.511 2080.11 223.721 1988.36 300.364Z" fill="white"/>
</mask>
<g mask="url(#mask3_369_389)">
<path d="M1924.28 1444.67L1950.56 1422.68L1982.77 1434.46L1988.62 1468.24L1962.34 1490.24L1930.13 1478.46L1924.28 1444.67Z" fill="#1A0852"/>
<path d="M2005.29 1376.94L2031.57 1354.94L2063.78 1366.81L2069.63 1400.5L2043.36 1422.5L2011.14 1410.72L2005.29 1376.94Z" fill="#1A0852"/>
<path d="M2086.31 1309.28L2112.59 1287.29L2144.8 1299.07L2150.65 1332.85L2124.37 1354.85L2092.16 1343.07L2086.31 1309.28Z" fill="#1A0852"/>
<path d="M2167.32 1241.54L2193.6 1219.55L2225.81 1231.42L2231.66 1265.11L2205.38 1287.11L2173.17 1275.33L2167.32 1241.54Z" fill="#1A0852"/>
<path d="M2248.34 1173.89L2274.61 1151.9L2306.83 1163.68L2312.76 1197.46L2286.4 1219.46L2254.18 1207.68L2248.34 1173.89Z" fill="#1A0852"/>
<path d="M2329.35 1106.16L2355.71 1084.16L2387.84 1096.03L2393.78 1129.72L2367.41 1151.72L2335.29 1139.94L2329.35 1106.16Z" fill="#1A0852"/>
<path d="M2410.36 1038.5L2436.73 1016.51L2468.85 1028.29L2474.79 1062.07L2448.43 1084.07L2416.3 1072.29L2410.36 1038.5Z" fill="#1A0852"/>
<path d="M2491.38 970.766L2517.74 948.855L2549.95 960.64L2555.8 994.334L2529.53 1016.33L2497.31 1004.55L2491.38 970.766Z" fill="#1A0852"/>
<path d="M2572.48 903.114L2598.75 881.117L2630.97 892.901L2636.82 926.683L2610.54 948.681L2578.33 936.896L2572.48 903.114Z" fill="#1A0852"/>
<path d="M2653.49 835.376L2679.77 813.465L2711.98 825.25L2717.83 859.032L2691.55 880.942L2659.34 869.158L2653.49 835.376Z" fill="#1A0852"/>
<path d="M1862.39 1370.65L1888.75 1348.74L1920.96 1360.52L1926.81 1394.31L1900.53 1416.22L1868.32 1404.43L1862.39 1370.65Z" fill="#1A0852"/>
<path d="M1943.49 1303L1969.76 1281L2001.98 1292.79L2007.83 1326.57L1981.55 1348.56L1949.34 1336.78L1943.49 1303Z" fill="#1A0852"/>
<path d="M2024.5 1235.26L2050.78 1213.35L2082.99 1225.13L2088.84 1258.92L2062.56 1280.83L2030.35 1269.04L2024.5 1235.26Z" fill="#1A0852"/>
<path d="M2105.51 1167.61L2131.79 1145.61L2164 1157.4L2169.85 1191.18L2143.58 1213.18L2111.36 1201.39L2105.51 1167.61Z" fill="#1A0852"/>
<path d="M2186.53 1099.87L2212.8 1077.96L2245.02 1089.74L2250.95 1123.53L2224.59 1145.44L2192.38 1133.65L2186.53 1099.87Z" fill="#1A0852"/>
<path d="M2267.54 1032.22L2293.91 1010.22L2326.03 1022.01L2331.97 1055.79L2305.6 1077.79L2273.48 1066L2267.54 1032.22Z" fill="#1A0852"/>
<path d="M2348.55 964.481L2374.92 942.57L2407.05 954.355L2412.98 988.137L2386.62 1010.05L2354.49 998.262L2348.55 964.481Z" fill="#1A0852"/>
<path d="M2429.57 896.829L2455.93 874.832L2488.15 886.616L2494 920.398L2467.72 942.395L2435.5 930.611L2429.57 896.829Z" fill="#1A0852"/>
<path d="M2510.67 829.091L2536.95 807.181L2569.16 818.965L2575.01 852.747L2548.73 874.657L2516.52 862.873L2510.67 829.091Z" fill="#1A0852"/>
<path d="M2591.68 761.439L2617.96 739.442L2650.17 751.226L2656.02 785.008L2629.75 807.006L2597.53 795.221L2591.68 761.439Z" fill="#1A0852"/>
<path d="M2672.7 693.701L2698.97 671.791L2731.19 683.575L2737.04 717.357L2710.76 739.268L2678.55 727.483L2672.7 693.701Z" fill="#1A0852"/>
<path d="M1800.58 1296.71L1826.94 1274.72L1859.16 1286.5L1865 1320.28L1838.73 1342.28L1806.51 1330.5L1800.58 1296.71Z" fill="#1A0852"/>
<path d="M1881.68 1228.97L1907.96 1207.06L1940.17 1218.85L1946.02 1252.63L1919.74 1274.54L1887.53 1262.76L1881.68 1228.97Z" fill="#1A0852"/>
<path d="M1962.69 1161.32L1988.97 1139.33L2021.18 1151.11L2027.03 1184.89L2000.75 1206.89L1968.54 1195.11L1962.69 1161.32Z" fill="#1A0852"/>
<path d="M2043.71 1093.59L2069.98 1071.67L2102.2 1083.46L2108.05 1117.24L2081.77 1139.15L2049.55 1127.37L2043.71 1093.59Z" fill="#1A0852"/>
<path d="M2124.72 1025.93L2151 1003.94L2183.21 1015.72L2189.15 1049.5L2162.78 1071.5L2130.57 1059.72L2124.72 1025.93Z" fill="#1A0852"/>
<path d="M2205.73 958.283L2232.1 936.285L2264.22 948.069L2270.16 981.852L2243.8 1003.76L2211.67 991.977L2205.73 958.283Z" fill="#1A0852"/>
<path d="M2286.75 890.544L2313.11 868.547L2345.24 880.331L2351.17 914.113L2324.81 936.111L2292.68 924.326L2286.75 890.544Z" fill="#1A0852"/>
<path d="M2367.76 822.893L2394.13 800.896L2426.34 812.68L2432.19 846.462L2405.91 868.459L2373.7 856.588L2367.76 822.893Z" fill="#1A0852"/>
<path d="M2448.86 755.154L2475.14 733.157L2507.35 744.941L2513.2 778.723L2486.92 800.721L2454.71 788.936L2448.86 755.154Z" fill="#1A0852"/>
<path d="M2529.88 687.503L2556.15 665.506L2588.37 677.29L2594.22 711.072L2567.94 733.07L2535.72 721.198L2529.88 687.503Z" fill="#1A0852"/>
<path d="M2610.89 619.765L2637.17 597.767L2669.38 609.552L2675.23 643.333L2648.95 665.331L2616.74 653.547L2610.89 619.765Z" fill="#1A0852"/>
<path d="M2691.9 552.113L2718.18 530.116L2750.39 541.9L2756.24 575.682L2729.97 597.68L2697.75 585.808L2691.9 552.113Z" fill="#1A0852"/>
<path d="M1738.77 1222.78L1765.13 1200.78L1797.35 1212.56L1803.2 1246.35L1776.92 1268.34L1744.71 1256.47L1738.77 1222.78Z" fill="#1A0852"/>
<path d="M1819.87 1155.04L1846.15 1133.04L1878.36 1144.83L1884.21 1178.61L1857.93 1200.61L1825.72 1188.82L1819.87 1155.04Z" fill="#1A0852"/>
<path d="M1900.88 1087.39L1927.16 1065.39L1959.37 1077.17L1965.22 1110.96L1938.95 1132.95L1906.73 1121.08L1900.88 1087.39Z" fill="#1A0852"/>
<path d="M1981.9 1019.65L2008.17 997.651L2040.39 1009.44L2046.24 1043.22L2019.96 1065.22L1987.75 1053.43L1981.9 1019.65Z" fill="#1A0852"/>
<path d="M2062.91 951.998L2089.19 930L2121.4 941.784L2127.25 975.566L2100.97 997.564L2068.76 985.78L2062.91 951.998Z" fill="#1A0852"/>
<path d="M2143.93 884.259L2170.2 862.262L2202.42 874.046L2208.35 907.828L2181.99 929.826L2149.86 918.041L2143.93 884.259Z" fill="#1A0852"/>
<path d="M2224.94 816.608L2251.3 794.61L2283.43 806.395L2289.37 840.177L2263 862.174L2230.88 850.39L2224.94 816.608Z" fill="#1A0852"/>
<path d="M2305.95 748.87L2332.32 726.872L2364.53 738.656L2370.38 772.438L2344.1 794.436L2311.89 782.652L2305.95 748.87Z" fill="#1A0852"/>
<path d="M2387.05 681.218L2413.33 659.221L2445.54 671.005L2451.39 704.787L2425.12 726.785L2392.9 715L2387.05 681.218Z" fill="#1A0852"/>
<path d="M2468.07 613.48L2494.34 591.482L2526.56 603.267L2532.41 637.049L2506.13 659.046L2473.92 647.262L2468.07 613.48Z" fill="#1A0852"/>
<path d="M2549.08 545.829L2575.36 523.831L2607.57 535.615L2613.42 569.397L2587.14 591.395L2554.93 579.611L2549.08 545.829Z" fill="#1A0852"/>
<path d="M2630.1 478.09L2656.37 456.092L2688.59 467.877L2694.43 501.659L2668.16 523.656L2635.94 511.872L2630.1 478.09Z" fill="#1A0852"/>
<path d="M1676.96 1148.75L1703.33 1126.76L1735.54 1138.54L1741.39 1172.32L1715.11 1194.32L1682.9 1182.54L1676.96 1148.75Z" fill="#1A0852"/>
<path d="M1758.06 1081.1L1784.34 1059.1L1816.55 1070.89L1822.4 1104.67L1796.13 1126.67L1763.91 1114.88L1758.06 1081.1Z" fill="#1A0852"/>
<path d="M1839.08 1013.36L1865.35 991.366L1897.57 1003.15L1903.42 1036.93L1877.14 1058.93L1844.93 1047.15L1839.08 1013.36Z" fill="#1A0852"/>
<path d="M1920.09 945.713L1946.37 923.715L1978.58 935.5L1984.43 969.282L1958.15 991.279L1925.94 979.495L1920.09 945.713Z" fill="#1A0852"/>
<path d="M2001.1 877.974L2027.38 855.977L2059.59 867.848L2065.44 901.543L2039.17 923.54L2006.95 911.756L2001.1 877.974Z" fill="#1A0852"/>
<path d="M2082.12 810.323L2108.39 788.325L2140.61 800.11L2146.54 833.892L2120.18 855.889L2087.97 844.105L2082.12 810.323Z" fill="#1A0852"/>
<path d="M2163.13 742.585L2189.5 720.587L2221.62 732.459L2227.56 766.153L2201.19 788.151L2169.07 776.366L2163.13 742.585Z" fill="#1A0852"/>
<path d="M2244.14 674.933L2270.51 652.936L2302.64 664.72L2308.57 698.502L2282.29 720.5L2250.08 708.715L2244.14 674.933Z" fill="#1A0852"/>
<path d="M2325.25 607.195L2351.52 585.197L2383.74 597.069L2389.59 630.764L2363.31 652.761L2331.1 640.977L2325.25 607.195Z" fill="#1A0852"/>
<path d="M2406.26 539.543L2432.54 517.546L2464.75 529.33L2470.6 563.112L2444.32 585.11L2412.11 573.325L2406.26 539.543Z" fill="#1A0852"/>
<path d="M2487.27 471.805L2513.55 449.895L2545.76 461.679L2551.61 495.374L2525.34 517.371L2493.12 505.587L2487.27 471.805Z" fill="#1A0852"/>
<path d="M2568.29 404.154L2594.56 382.156L2626.78 393.941L2632.63 427.723L2606.35 449.72L2574.14 437.936L2568.29 404.154Z" fill="#1A0852"/>
<path d="M1615.15 1074.82L1641.52 1052.82L1673.73 1064.6L1679.58 1098.39L1653.3 1120.38L1621.09 1108.6L1615.15 1074.82Z" fill="#1A0852"/>
<path d="M1696.25 1007.08L1722.53 985.169L1754.75 996.953L1760.59 1030.65L1734.32 1052.65L1702.1 1040.86L1696.25 1007.08Z" fill="#1A0852"/>
<path d="M1777.27 939.428L1803.55 917.43L1835.76 929.215L1841.61 962.997L1815.33 984.994L1783.12 973.21L1777.27 939.428Z" fill="#1A0852"/>
<path d="M1858.28 871.689L1884.56 849.779L1916.77 861.563L1922.62 895.345L1896.34 917.255L1864.13 905.471L1858.28 871.689Z" fill="#1A0852"/>
<path d="M1939.3 804.038L1965.57 782.041L1997.79 793.825L2003.64 827.607L1977.36 849.605L1945.14 837.82L1939.3 804.038Z" fill="#1A0852"/>
<path d="M2020.31 736.299L2046.59 714.389L2078.8 726.174L2084.74 759.956L2058.37 781.866L2026.16 770.081L2020.31 736.299Z" fill="#1A0852"/>
<path d="M2101.32 668.648L2127.69 646.651L2159.81 658.435L2165.75 692.217L2139.39 714.215L2107.26 702.43L2101.32 668.648Z" fill="#1A0852"/>
<path d="M2182.34 600.91L2208.7 579L2240.83 590.784L2246.76 624.566L2220.4 646.476L2188.27 634.692L2182.34 600.91Z" fill="#1A0852"/>
<path d="M2263.35 533.258L2289.72 511.261L2321.93 523.045L2327.78 556.827L2301.5 578.825L2269.29 567.04L2263.35 533.258Z" fill="#1A0852"/>
<path d="M2344.45 465.52L2370.73 443.61L2402.94 455.394L2408.79 489.176L2382.51 511.086L2350.3 499.302L2344.45 465.52Z" fill="#1A0852"/>
<path d="M2425.47 397.869L2451.74 375.871L2483.96 387.655L2489.81 421.437L2463.53 443.435L2431.31 431.651L2425.47 397.869Z" fill="#1A0852"/>
<path d="M2506.48 330.13L2532.76 308.22L2564.97 320.004L2570.82 353.786L2544.54 375.696L2512.33 363.912L2506.48 330.13Z" fill="#1A0852"/>
<path d="M1553.35 1000.79L1579.71 978.884L1611.92 990.668L1617.77 1024.45L1591.5 1046.36L1559.28 1034.58L1553.35 1000.79Z" fill="#1A0852"/>
<path d="M1634.45 933.143L1660.72 911.145L1692.94 922.929L1698.79 956.711L1672.51 978.709L1640.3 966.925L1634.45 933.143Z" fill="#1A0852"/>
<path d="M1715.46 865.404L1741.74 843.494L1773.95 855.279L1779.8 889.061L1753.52 910.971L1721.31 899.186L1715.46 865.404Z" fill="#1A0852"/>
<path d="M1796.47 797.753L1822.75 775.755L1854.96 787.54L1860.81 821.322L1834.54 843.319L1802.32 831.535L1796.47 797.753Z" fill="#1A0852"/>
<path d="M1877.49 730.014L1903.76 708.104L1935.98 719.888L1941.83 753.67L1915.55 775.581L1883.34 763.796L1877.49 730.014Z" fill="#1A0852"/>
<path d="M1958.5 662.363L1984.78 640.366L2016.99 652.15L2022.93 685.932L1996.56 707.93L1964.35 696.145L1958.5 662.363Z" fill="#1A0852"/>
<path d="M2039.52 594.625L2065.88 572.714L2098.01 584.499L2103.94 618.281L2077.58 640.191L2045.45 628.407L2039.52 594.625Z" fill="#1A0852"/>
<path d="M2120.53 526.974L2146.89 504.976L2179.02 516.76L2184.96 550.542L2158.59 572.54L2126.47 560.756L2120.53 526.974Z" fill="#1A0852"/>
<path d="M2201.54 459.322L2227.91 437.325L2260.12 449.109L2265.97 482.891L2239.69 504.801L2207.48 493.017L2201.54 459.322Z" fill="#1A0852"/>
<path d="M2282.64 391.584L2308.92 369.586L2341.13 381.37L2346.98 415.152L2320.71 437.15L2288.49 425.365L2282.64 391.584Z" fill="#1A0852"/>
<path d="M2363.66 323.933L2389.93 301.935L2422.15 313.719L2428 347.501L2401.72 369.499L2369.51 357.627L2363.66 323.933Z" fill="#1A0852"/>
<path d="M2444.67 256.194L2470.95 234.196L2503.16 245.981L2509.01 279.763L2482.73 301.76L2450.52 289.976L2444.67 256.194Z" fill="#1A0852"/>
<path d="M1491.54 926.858L1517.9 904.86L1550.12 916.645L1555.96 950.427L1529.69 972.424L1497.47 960.64L1491.54 926.858Z" fill="#1A0852"/>
<path d="M1572.64 859.207L1598.92 837.209L1631.13 848.993L1636.98 882.775L1610.7 904.773L1578.49 892.901L1572.64 859.207Z" fill="#1A0852"/>
<path d="M1653.65 791.468L1679.93 769.47L1712.14 781.255L1717.99 815.037L1691.71 837.034L1659.5 825.25L1653.65 791.468Z" fill="#1A0852"/>
<path d="M1734.67 723.817L1760.94 701.819L1793.16 713.604L1799.01 747.386L1772.73 769.383L1740.52 757.512L1734.67 723.817Z" fill="#1A0852"/>
<path d="M1815.68 656.078L1841.96 634.081L1874.17 645.865L1880.02 679.647L1853.74 701.644L1821.53 689.86L1815.68 656.078Z" fill="#1A0852"/>
<path d="M1896.69 588.427L1922.97 566.429L1955.18 578.214L1961.12 611.996L1934.76 633.993L1902.54 622.121L1896.69 588.427Z" fill="#1A0852"/>
<path d="M1977.71 520.689L2004.07 498.691L2036.2 510.475L2042.13 544.257L2015.77 566.255L1983.64 554.47L1977.71 520.689Z" fill="#1A0852"/>
<path d="M2058.72 453.037L2085.09 431.04L2117.21 442.824L2123.15 476.606L2096.78 498.603L2064.66 486.819L2058.72 453.037Z" fill="#1A0852"/>
<path d="M2139.73 385.299L2166.1 363.301L2198.31 375.086L2204.16 408.868L2177.88 430.865L2145.67 419.081L2139.73 385.299Z" fill="#1A0852"/>
<path d="M2220.84 317.647L2247.11 295.65L2279.33 307.434L2285.18 341.216L2258.9 363.214L2226.68 351.429L2220.84 317.647Z" fill="#1A0852"/>
<path d="M2301.85 249.909L2328.13 227.911L2360.34 239.696L2366.19 273.478L2339.91 295.475L2307.7 283.691L2301.85 249.909Z" fill="#1A0852"/>
<path d="M2382.86 182.258L2409.14 160.26L2441.35 172.045L2447.2 205.827L2420.93 227.824L2388.71 216.04L2382.86 182.258Z" fill="#1A0852"/>
<path d="M1429.73 852.921L1456.09 830.924L1488.22 842.708L1494.16 876.49L1467.88 898.488L1435.67 886.703L1429.73 852.921Z" fill="#1A0852"/>
<path d="M1510.83 785.183L1537.11 763.186L1569.32 774.97L1575.17 808.752L1548.89 830.749L1516.68 818.965L1510.83 785.183Z" fill="#1A0852"/>
<path d="M1591.84 717.532L1618.12 695.534L1650.34 707.319L1656.18 741.101L1629.91 763.098L1597.69 751.314L1591.84 717.532Z" fill="#1A0852"/>
<path d="M1672.86 649.793L1699.14 627.795L1731.35 639.58L1737.2 673.362L1710.92 695.359L1678.71 683.575L1672.86 649.793Z" fill="#1A0852"/>
<path d="M1753.87 582.142L1780.15 560.145L1812.36 571.929L1818.21 605.711L1791.93 627.708L1759.72 615.924L1753.87 582.142Z" fill="#1A0852"/>
<path d="M1834.89 514.403L1861.16 492.406L1893.38 504.19L1899.31 537.972L1872.95 559.97L1840.73 548.185L1834.89 514.403Z" fill="#1A0852"/>
<path d="M1915.9 446.752L1942.26 424.754L1974.39 436.539L1980.33 470.321L1953.96 492.318L1921.84 480.534L1915.9 446.752Z" fill="#1A0852"/>
<path d="M1996.91 379.014L2023.28 357.016L2055.4 368.888L2061.34 402.582L2034.98 424.58L2002.85 412.796L1996.91 379.014Z" fill="#1A0852"/>
<path d="M2077.93 311.362L2104.29 289.365L2136.5 301.149L2142.35 334.931L2116.08 356.929L2083.86 345.144L2077.93 311.362Z" fill="#1A0852"/>
<path d="M2159.03 243.624L2185.31 221.626L2217.52 233.498L2223.37 267.193L2197.09 289.19L2164.88 277.406L2159.03 243.624Z" fill="#1A0852"/>
<path d="M2240.04 175.973L2266.32 153.975L2298.53 165.759L2304.38 199.541L2278.1 221.539L2245.89 209.755L2240.04 175.973Z" fill="#1A0852"/>
<path d="M1367.92 778.898L1394.29 756.9L1426.41 768.772L1432.35 802.467L1405.98 824.464L1373.86 812.68L1367.92 778.898Z" fill="#1A0852"/>
<path d="M1448.94 711.247L1475.3 689.249L1507.51 701.033L1513.36 734.815L1487.09 756.813L1454.87 745.029L1448.94 711.247Z" fill="#1A0852"/>
<path d="M1530.04 643.508L1556.31 621.511L1588.53 633.382L1594.38 667.077L1568.1 689.075L1535.89 677.29L1530.04 643.508Z" fill="#1A0852"/>
<path d="M1611.05 575.857L1637.33 553.859L1669.54 565.644L1675.39 599.426L1649.11 621.423L1616.9 609.639L1611.05 575.857Z" fill="#1A0852"/>
<path d="M1692.06 508.118L1718.34 486.208L1750.55 497.992L1756.4 531.687L1730.13 553.685L1697.91 541.9L1692.06 508.118Z" fill="#1A0852"/>
<path d="M1773.08 440.467L1799.36 418.47L1831.57 430.254L1837.5 464.036L1811.14 486.034L1778.93 474.249L1773.08 440.467Z" fill="#1A0852"/>
<path d="M1854.09 372.729L1880.46 350.818L1912.58 362.603L1918.52 396.385L1892.15 418.295L1860.03 406.511L1854.09 372.729Z" fill="#1A0852"/>
<path d="M1935.11 305.078L1961.47 283.08L1993.6 294.864L1999.53 328.646L1973.17 350.644L1941.04 338.86L1935.11 305.078Z" fill="#1A0852"/>
<path d="M2016.12 237.339L2042.48 215.429L2074.7 227.213L2080.55 260.995L2054.27 282.905L2022.06 271.121L2016.12 237.339Z" fill="#1A0852"/>
<path d="M2097.22 169.688L2123.5 147.69L2155.71 159.474L2161.56 193.256L2135.28 215.254L2103.07 203.469L2097.22 169.688Z" fill="#1A0852"/>
</g>
<path d="M2543.06 964.218C2577.19 932.706 2606.7 896.742 2630.27 857.286C2654.1 817.917 2669.73 774.097 2679.16 729.578C2688.59 685.059 2692.08 639.056 2686.84 593.926C2681.69 548.796 2669.55 504.714 2651.05 463.599L2636.03 433.309L2618.05 404.677L2613.6 397.519L2608.44 390.798L2598.23 377.355L2588.02 363.912L2576.84 351.255C2561.57 334.669 2545.15 319.218 2527.61 305.252C2509.88 291.372 2491.2 278.89 2471.56 267.891C2432.36 245.981 2389.5 230.704 2345.41 222.324C2301.33 214.206 2255.93 212.81 2211.49 219.007C2166.97 224.419 2123.5 237.426 2083.08 256.805C2062.74 266.32 2043.53 278.017 2025.11 290.849C2015.77 297.134 2007.04 304.204 1998.22 311.1L1971.33 333.272C1899.57 392.369 1828.43 452.251 1755.97 510.475L1539.29 686.106C1466.4 743.806 1394.11 802.292 1320.61 859.381C1320.26 859.73 1319.65 859.643 1319.38 859.294C1319.12 858.944 1319.12 858.421 1319.47 858.071L1747.24 500.087L1961.12 321.139C1979.02 306.299 1996.48 290.849 2015.68 277.58C2034.8 264.225 2054.71 251.916 2075.74 241.878C2117.65 221.452 2162.87 207.659 2209.23 201.724C2255.49 195.439 2302.72 197.272 2348.55 206.001C2394.3 214.992 2438.73 231.141 2479.33 254.099C2560.95 299.578 2626.08 372.903 2663.53 458.187C2681.95 500.96 2693.74 546.614 2698.28 592.966C2702.9 639.405 2698.63 686.456 2688.24 731.76C2677.41 776.977 2660.39 821.06 2635.25 860.341C2610.54 899.797 2579.64 935.238 2544.28 965.615C2543.93 965.964 2543.41 965.877 2543.06 965.528C2542.71 965.179 2542.8 964.655 2543.06 964.306V964.218Z" fill="white"/>
<path d="M1115.36 998.611L832.69 1234.74C696.066 1348.91 677.821 1552.3 792.008 1688.92L964.337 1895.1C1078.52 2031.71 1281.93 2049.87 1418.56 1935.78L1701.23 1699.65L1115.45 998.611H1115.36Z" fill="#4E74BF"/>
<path d="M874.593 1716.94L840.547 1676.17C734.915 1549.77 751.851 1361.66 878.26 1256.04L1106.64 1065.3L1140.68 1105.98L912.307 1296.71C785.897 1402.34 769.049 1590.54 874.681 1716.94H874.593Z" fill="white"/>
<path d="M1100.89 1015.89L1681.63 1710.88C1697.03 1729.31 1724.44 1731.76 1742.87 1716.37L1922.14 1566.59C1940.57 1551.2 1943.02 1523.78 1927.63 1505.36L1346.89 810.371C1331.49 791.948 1304.08 789.491 1285.65 804.885L1106.38 954.661C1087.95 970.055 1085.5 997.469 1100.89 1015.89Z" fill="#4E74BF"/>
<path d="M1319.38 828.13L1148.71 970.765C1130.29 986.129 1127.85 1013.63 1143.21 1032.04L1177.26 1072.81C1161.81 1054.39 1164.34 1026.89 1182.76 1011.53L1353.43 868.896L1319.38 828.13Z" fill="white"/>
<path d="M1101.57 1015.37L1392.63 1362.27L1682.29 1710.3C1682.29 1710.3 1682.55 1711.26 1682.2 1711.52C1681.85 1711.79 1681.33 1711.79 1681.06 1711.52C1654.26 1684.64 1629.03 1656.62 1602.93 1629.21L1527.16 1544.97C1476.7 1488.84 1427.98 1431.14 1379.36 1373.44L1307.34 1286.06C1283.85 1256.56 1259.67 1227.58 1236.8 1197.46L1167.4 1107.9C1145.13 1077.35 1122 1047.5 1100.35 1016.33C1100.09 1015.9 1100.18 1015.37 1100.52 1015.02C1100.87 1014.76 1101.4 1014.85 1101.66 1015.2L1101.57 1015.37Z" fill="#1A0852"/>
<path d="M1694.42 1396.58V2180.28C1694.42 2262.77 1627.55 2329.64 1545.05 2329.64H1305.15C1368.27 2329.64 1425.45 2304.06 1466.74 2262.69C1508.12 2221.31 1533.7 2164.22 1533.7 2101.11V1398.85C1533.7 1355.55 1566.96 1318.36 1610.18 1316.27C1656.27 1314.08 1694.42 1350.92 1694.42 1396.58Z" fill="#96B9FF"/>
<path d="M1650.68 1342.89H1625.11C1592.46 1342.89 1565.92 1369.43 1565.92 1402.07C1565.92 1434.72 1592.46 1461.26 1625.11 1461.26H1650.68" fill="#1A0852"/>
<path d="M1709.87 1402.07C1709.87 1434.72 1683.33 1461.26 1650.68 1461.26C1618.03 1461.26 1591.5 1434.72 1591.5 1402.07C1591.5 1369.43 1618.03 1342.89 1650.68 1342.89C1683.33 1342.89 1709.87 1369.43 1709.87 1402.07Z" fill="#96B9FF"/>
<path d="M1591.06 1402.07C1590.71 1378.51 1605.81 1355.64 1627.81 1346.82C1649.55 1337.39 1676.52 1342.72 1693.2 1359.65C1710.14 1376.32 1715.37 1403.3 1706.03 1425.03C1697.21 1446.94 1674.34 1462.13 1650.77 1461.78V1460.91C1656.53 1459.95 1662.03 1458.55 1667.27 1456.54C1672.42 1454.28 1677.22 1451.48 1681.41 1448.08C1689.97 1441.36 1696.43 1432.45 1699.83 1422.5C1701.49 1417.53 1702.28 1412.46 1702.89 1407.31C1703.15 1402.16 1702.89 1397.01 1701.84 1392.04C1699.57 1382.08 1694.42 1372.92 1687.18 1365.85C1680.1 1358.6 1671.02 1353.37 1660.99 1351.18C1656.01 1350.14 1650.86 1349.79 1645.71 1350.14C1640.64 1350.75 1635.49 1351.62 1630.52 1353.19C1620.65 1356.6 1611.66 1362.97 1605.03 1371.61C1601.62 1375.8 1598.74 1380.6 1596.47 1385.75C1594.38 1390.99 1592.98 1396.49 1592.02 1402.25H1591.15L1591.06 1402.07Z" fill="white"/>
<path d="M1469.45 2329.55H1369.32V2700.63H1469.45V2329.55Z" fill="#96B9FF"/>
<path d="M1469.45 2422.6L1369.32 2386.99V2329.55H1469.45V2422.6Z" fill="#1A0852"/>
<mask id="mask4_369_389" style="mask-type:luminance" maskUnits="userSpaceOnUse" x="3401" y="1448" width="3759" height="1241">
<path d="M7159.92 1448.75H3401.43V2688.21H7159.92V1448.75Z" fill="white"/>
</mask>
<g mask="url(#mask4_369_389)">
<path d="M3580.65 2955.5C3682.62 2778.73 3839.58 2634.18 4024.22 2547.15C4626.06 2263.45 5382.77 2614.19 5987.76 2337.21C6351.09 2170.92 6590.38 1805.95 6946.91 1625.69C7260.32 1467.26 7651.16 1472.85 7959.85 1640.18" stroke="white" stroke-width="1.5" stroke-miterlimit="10"/>
<path d="M6077.15 2773.67C6781.31 2713.7 6670.26 2241.1 7340.55 2250.09" stroke="white" stroke-width="1.5" stroke-miterlimit="10"/>
</g>
<path d="M2560.04 1764.93L2627.26 1926.15L2801.33 1940.21L2668.72 2053.86L2709.23 2223.82L2560.04 2132.86L2410.93 2223.82L2451.44 2053.86L2318.74 1940.21L2492.9 1926.15L2560.04 1764.93Z" fill="white"/>
<path d="M3062.44 1448.75L3105.39 1551.93L3216.88 1560.92L3131.93 1633.64L3157.86 1742.4L3062.44 1684.18L2967.03 1742.4L2992.87 1633.64L2908.01 1560.92L3019.49 1551.93L3062.44 1448.75Z" fill="white"/>
<path d="M1238.94 141.296L1306.07 302.611L1480.23 316.665L1347.62 430.319L1388.04 600.277L1238.94 509.231L1089.83 600.277L1130.34 430.319L997.64 316.665L1171.8 302.611L1238.94 141.296Z" fill="white"/>
<path d="M716.711 666.619L759.662 769.798L871.144 778.789L786.201 851.503L812.129 960.269L716.711 902.045L621.206 960.269L647.133 851.503L562.279 778.789L673.672 769.798L716.711 666.619Z" fill="white"/>
<path d="M3387.75 1873.73V985.595H3358L3379.92 777.266H3666.48C3746.86 777.266 3804.27 795.018 3838.72 830.523C3874.22 864.983 3891.96 921.895 3891.96 1001.26V1358.39C3891.96 1437.76 3874.22 1495.19 3838.72 1530.7C3804.27 1565.16 3746.86 1582.39 3666.48 1582.39H3600.71V1873.73H3387.75ZM3671.17 985.595H3600.71V1374.06H3671.17C3676.39 1374.06 3679 1371.45 3679 1366.23V993.427C3679 988.205 3676.39 985.595 3671.17 985.595Z" fill="white"/>
<path d="M4474.25 1656.01C4474.25 1735.37 4456.5 1792.8 4421.01 1828.31C4386.56 1862.77 4329.14 1880 4248.76 1880H4179.86C4099.48 1880 4041.54 1862.77 4006.05 1828.31C3971.6 1792.8 3954.38 1735.37 3954.38 1656.01V994.993C3954.38 914.585 3971.6 857.151 4006.05 822.691C4041.54 788.23 4099.48 771 4179.86 771H4248.76C4329.14 771 4386.56 788.23 4421.01 822.691C4456.5 857.151 4474.25 914.585 4474.25 994.993V1656.01ZM4175.17 979.329C4169.95 979.329 4167.34 981.94 4167.34 987.161V1663.84C4167.34 1669.06 4169.95 1671.67 4175.17 1671.67H4253.46C4258.68 1671.67 4261.29 1669.06 4261.29 1663.84V987.161C4261.29 981.94 4258.68 979.329 4253.46 979.329H4175.17Z" fill="white"/>
<path d="M5078.97 1649.74C5078.97 1729.1 5061.22 1786.54 5025.73 1822.04C4991.28 1856.5 4933.86 1873.73 4853.48 1873.73H4559.1V985.595H4529.35L4551.27 777.266H4853.48C4933.86 777.266 4991.28 794.496 5025.73 828.956C5061.22 863.417 5078.97 920.851 5078.97 1001.26V1649.74ZM4858.18 1665.41C4863.4 1665.41 4866.01 1662.79 4866.01 1657.57V993.427C4866.01 988.205 4863.4 985.595 4858.18 985.595H4772.06V1665.41H4858.18Z" fill="white"/>
<path d="M5162.94 1873.73V985.595H5133.19L5155.11 777.266H5454.19C5534.57 777.266 5591.99 795.018 5626.44 830.523C5661.93 864.983 5679.68 921.895 5679.68 1001.26V1206.45C5679.68 1237.78 5677.07 1265.46 5671.85 1289.47C5697.95 1323.93 5710.99 1376.15 5710.99 1446.11V1649.74C5710.99 1729.1 5693.25 1786.54 5657.76 1822.04C5623.31 1856.5 5565.89 1873.73 5485.51 1873.73H5162.94ZM5458.89 1222.12C5464.11 1222.12 5466.72 1219.51 5466.72 1214.29V993.427C5466.72 988.205 5464.11 985.595 5458.89 985.595H5375.9V1222.12H5458.89ZM5498.04 1438.28C5498.04 1433.06 5495.43 1430.45 5490.21 1430.45H5375.9V1665.41H5490.21C5495.43 1665.41 5498.04 1662.79 5498.04 1657.57V1438.28Z" fill="white"/>
<path d="M5766.45 1873.73L5896.42 985.595H5863.53L5885.46 777.266H6250.3L6411.59 1873.73H6200.2L6176.71 1717.1H6001.33L5977.84 1873.73H5766.45ZM6031.08 1508.77H6146.96L6089.02 1117.17L6031.08 1508.77Z" fill="white"/>
<path d="M6496.38 1873.73V985.595H6466.63L6488.55 777.266H6775.1C6855.49 777.266 6912.9 795.018 6947.35 830.523C6982.84 864.983 7000.59 921.895 7000.59 1001.26V1358.39C7000.59 1438.8 6983.37 1496.24 6948.92 1530.7L7046 1873.73H6833.04L6751.62 1582.39H6709.34V1873.73H6496.38ZM6779.8 985.595H6709.34V1374.06H6779.8C6785.02 1374.06 6787.63 1371.45 6787.63 1366.23V993.427C6787.63 988.205 6785.02 985.595 6779.8 985.595Z" fill="white"/>
</g>
<defs>
<clipPath id="clip0_369_389">
<rect width="7159.36" height="2688" fill="white"/>
</clipPath>
</defs>
</svg>
