<svg width="1152" height="433" viewBox="0 0 1152 433" fill="none" xmlns="http://www.w3.org/2000/svg">
<rect width="648.782" height="432.522" fill="#D9D9D9"/>
<g clip-path="url(#clip0_369_389)">
<path d="M1152.09 -5.6792H0.222168V432.556H1152.09V-5.6792Z" fill="#6C57D9"/>
<mask id="mask0_369_389" style="mask-type:luminance" maskUnits="userSpaceOnUse" x="0" y="-6" width="257" height="331">
<path d="M0.236206 324.093L256.218 324.093L256.218 -5.69312L0.236206 -5.69312L0.236206 324.093Z" fill="white"/>
</mask>
<g mask="url(#mask0_369_389)">
<path d="M-48.7042 297.714C-4.90505 317.308 47.0274 317.856 91.2198 299.189C145.821 276.126 186.024 226.782 240.583 203.634" stroke="white" stroke-width="1.5" stroke-miterlimit="10"/>
<path d="M-20.7784 82.6279C19.818 90.7886 44.2179 71.0961 68.5617 49.5074C93.4252 27.4552 132.701 -12.1966 186.586 -9.07841" stroke="white" stroke-width="1.5" stroke-miterlimit="10"/>
</g>
<mask id="mask1_369_389" style="mask-type:luminance" maskUnits="userSpaceOnUse" x="409" y="-6" width="622" height="157">
<path d="M409.655 150.919L1030.78 150.919V-5.69339L409.655 -5.69339V150.919Z" fill="white"/>
</mask>
<g mask="url(#mask1_369_389)">
<path d="M1020.97 -33.1814C1004.24 -1.52173 963.634 32.905 922.729 42.8777C816.644 68.7504 742.152 19.0697 622.765 55.814C566.647 73.0765 533.018 115.509 478.655 136.059" stroke="white" stroke-width="1.5" stroke-miterlimit="10"/>
<path d="M411.285 35.8127C494.388 59.5224 528.494 -14.4017 580.553 -6.53594" stroke="white" stroke-width="1.5" stroke-miterlimit="10"/>
</g>
<mask id="mask2_369_389" style="mask-type:luminance" maskUnits="userSpaceOnUse" x="34" y="-6" width="537" height="439">
<path d="M570.475 -5.63184H34.4344V432.603H570.475V-5.63184Z" fill="white"/>
</mask>
<g mask="url(#mask2_369_389)">
<path d="M535.188 197.839C568.073 276.004 462.55 367.795 407.879 405.228C351.704 443.7 260.636 495.923 197.255 453.251C173.754 437.421 162.629 398.879 153.821 371.601C136.192 317.061 71.0273 314.167 52.499 262.324C8.68588 139.716 200.093 6.89728 291.975 -25.0855C353.558 -46.5196 435.889 -37.2071 457.592 36.0427C462.129 51.3669 462.382 67.2389 463.885 82.7175C468.984 135.123 516.421 153.242 535.188 197.839Z" fill="#8C75FF"/>
</g>
<path d="M184.135 224.72V350.825C184.135 364.099 194.895 374.858 208.17 374.858H246.772C236.615 374.858 227.415 370.742 220.77 364.085C214.112 357.427 209.996 348.241 209.996 338.086V225.086C209.996 218.119 204.644 212.135 197.691 211.798C190.274 211.447 184.135 217.374 184.135 224.72Z" fill="#1A0852"/>
<path d="M319.943 48.3311L212.398 138.169L301.752 245.101L409.297 155.263C438.825 130.584 442.772 86.6627 418.091 57.1239C405.758 42.3616 388.592 33.9902 370.836 32.403C353.081 30.8158 334.707 35.9988 319.943 48.3311Z" fill="#2A4987"/>
<mask id="mask3_369_389" style="mask-type:luminance" maskUnits="userSpaceOnUse" x="212" y="32" width="223" height="214">
<path d="M319.943 48.3311L212.398 138.169L301.752 245.101L409.297 155.263C438.825 130.584 442.772 86.6627 418.091 57.1239C405.758 42.3616 388.592 33.9902 370.836 32.403C353.081 30.8158 334.707 35.9988 319.943 48.3311Z" fill="white"/>
</mask>
<g mask="url(#mask3_369_389)">
<path d="M309.633 232.46L313.861 228.92L319.044 230.817L319.985 236.252L315.757 239.792L310.574 237.896L309.633 232.46Z" fill="#1A0852"/>
<path d="M322.668 221.561L326.897 218.021L332.08 219.931L333.021 225.353L328.793 228.893L323.61 226.996L322.668 221.561Z" fill="#1A0852"/>
<path d="M335.704 210.675L339.932 207.135L345.116 209.031L346.057 214.467L341.829 218.007L336.645 216.111L335.704 210.675Z" fill="#1A0852"/>
<path d="M348.74 199.775L352.968 196.235L358.152 198.146L359.093 203.567L354.865 207.107L349.681 205.211L348.74 199.775Z" fill="#1A0852"/>
<path d="M361.776 188.89L366.004 185.35L371.187 187.246L372.143 192.682L367.9 196.222L362.717 194.325L361.776 188.89Z" fill="#1A0852"/>
<path d="M374.812 177.99L379.054 174.45L384.223 176.36L385.178 181.782L380.936 185.322L375.767 183.426L374.812 177.99Z" fill="#1A0852"/>
<path d="M387.847 167.104L392.09 163.564L397.259 165.461L398.214 170.896L393.972 174.436L388.803 172.54L387.847 167.104Z" fill="#1A0852"/>
<path d="M400.883 156.204L405.125 152.679L410.309 154.575L411.25 159.997L407.022 163.536L401.838 161.64L400.883 156.204Z" fill="#1A0852"/>
<path d="M413.933 145.319L418.161 141.779L423.345 143.676L424.286 149.111L420.058 152.651L414.874 150.755L413.933 145.319Z" fill="#1A0852"/>
<path d="M426.969 134.419L431.197 130.894L436.38 132.79L437.322 138.226L433.093 141.751L427.91 139.855L426.969 134.419Z" fill="#1A0852"/>
<path d="M299.673 220.549L303.915 217.023L309.099 218.92L310.04 224.355L305.812 227.881L300.628 225.985L299.673 220.549Z" fill="#1A0852"/>
<path d="M312.723 209.664L316.951 206.124L322.135 208.02L323.076 213.456L318.848 216.996L313.664 215.099L312.723 209.664Z" fill="#1A0852"/>
<path d="M325.759 198.764L329.987 195.238L335.17 197.134L336.112 202.57L331.883 206.096L326.7 204.2L325.759 198.764Z" fill="#1A0852"/>
<path d="M338.795 187.878L343.023 184.339L348.206 186.235L349.147 191.671L344.919 195.21L339.736 193.314L338.795 187.878Z" fill="#1A0852"/>
<path d="M351.83 176.979L356.059 173.453L361.242 175.349L362.197 180.785L357.955 184.311L352.772 182.414L351.83 176.979Z" fill="#1A0852"/>
<path d="M364.866 166.093L369.108 162.553L374.278 164.449L375.233 169.885L370.991 173.425L365.821 171.529L364.866 166.093Z" fill="#1A0852"/>
<path d="M377.902 155.193L382.144 151.667L387.314 153.564L388.269 158.999L384.027 162.525L378.857 160.629L377.902 155.193Z" fill="#1A0852"/>
<path d="M390.938 144.308L395.18 140.768L400.363 142.664L401.305 148.1L397.076 151.64L391.893 149.743L390.938 144.308Z" fill="#1A0852"/>
<path d="M403.988 133.408L408.216 129.882L413.399 131.779L414.34 137.214L410.112 140.74L404.929 138.844L403.988 133.408Z" fill="#1A0852"/>
<path d="M417.023 122.522L421.252 118.982L426.435 120.879L427.376 126.314L423.148 129.854L417.965 127.958L417.023 122.522Z" fill="#1A0852"/>
<path d="M430.059 111.623L434.287 108.097L439.471 109.993L440.412 115.429L436.184 118.955L431 117.059L430.059 111.623Z" fill="#1A0852"/>
<path d="M289.728 208.652L293.97 205.113L299.153 207.009L300.095 212.445L295.866 215.984L290.683 214.088L289.728 208.652Z" fill="#1A0852"/>
<path d="M302.778 197.753L307.006 194.227L312.189 196.123L313.13 201.559L308.902 205.085L303.719 203.188L302.778 197.753Z" fill="#1A0852"/>
<path d="M315.813 186.867L320.042 183.327L325.225 185.223L326.166 190.659L321.938 194.199L316.755 192.303L315.813 186.867Z" fill="#1A0852"/>
<path d="M328.849 175.967L333.077 172.442L338.261 174.338L339.202 179.774L334.974 183.299L329.79 181.403L328.849 175.967Z" fill="#1A0852"/>
<path d="M341.885 165.082L346.113 161.542L351.297 163.438L352.252 168.874L348.01 172.414L342.826 170.517L341.885 165.082Z" fill="#1A0852"/>
<path d="M354.921 154.196L359.163 150.656L364.332 152.552L365.288 157.988L361.045 161.514L355.876 159.618L354.921 154.196Z" fill="#1A0852"/>
<path d="M367.957 143.296L372.199 139.757L377.368 141.653L378.323 147.089L374.081 150.628L368.912 148.732L367.957 143.296Z" fill="#1A0852"/>
<path d="M380.992 132.411L385.235 128.871L390.418 130.767L391.359 136.203L387.131 139.743L381.948 137.832L380.992 132.411Z" fill="#1A0852"/>
<path d="M394.042 121.511L398.27 117.971L403.454 119.867L404.395 125.303L400.167 128.843L394.983 126.947L394.042 121.511Z" fill="#1A0852"/>
<path d="M407.078 110.625L411.306 107.085L416.49 108.982L417.431 114.417L413.203 117.957L408.019 116.047L407.078 110.625Z" fill="#1A0852"/>
<path d="M420.114 99.7256L424.342 96.186L429.525 98.0823L430.467 103.518L426.238 107.058L421.055 105.161L420.114 99.7256Z" fill="#1A0852"/>
<path d="M433.15 88.8399L437.378 85.3003L442.561 87.1965L443.502 92.6323L439.274 96.1719L434.091 94.2616L433.15 88.8399Z" fill="#1A0852"/>
<path d="M279.782 196.755L284.025 193.216L289.208 195.112L290.149 200.548L285.921 204.087L280.738 202.177L279.782 196.755Z" fill="#1A0852"/>
<path d="M292.832 185.856L297.06 182.316L302.244 184.212L303.185 189.648L298.957 193.188L293.773 191.291L292.832 185.856Z" fill="#1A0852"/>
<path d="M305.868 174.97L310.096 171.43L315.28 173.326L316.221 178.762L311.993 182.302L306.809 180.392L305.868 174.97Z" fill="#1A0852"/>
<path d="M318.904 164.07L323.132 160.531L328.315 162.427L329.257 167.863L325.028 171.402L319.845 169.506L318.904 164.07Z" fill="#1A0852"/>
<path d="M331.94 153.185L336.168 149.645L341.351 151.541L342.292 156.977L338.064 160.517L332.881 158.62L331.94 153.185Z" fill="#1A0852"/>
<path d="M344.975 142.285L349.204 138.745L354.387 140.641L355.342 146.077L351.1 149.617L345.931 147.721L344.975 142.285Z" fill="#1A0852"/>
<path d="M358.011 131.399L362.253 127.86L367.423 129.756L368.378 135.192L364.136 138.731L358.966 136.835L358.011 131.399Z" fill="#1A0852"/>
<path d="M371.047 120.5L375.289 116.96L380.473 118.856L381.414 124.292L377.186 127.832L372.002 125.935L371.047 120.5Z" fill="#1A0852"/>
<path d="M384.097 109.614L388.325 106.074L393.508 107.97L394.45 113.406L390.221 116.946L385.038 115.05L384.097 109.614Z" fill="#1A0852"/>
<path d="M397.133 98.7144L401.361 95.1748L406.544 97.071L407.485 102.507L403.257 106.046L398.074 104.15L397.133 98.7144Z" fill="#1A0852"/>
<path d="M410.168 87.8286L414.397 84.2891L419.58 86.1853L420.521 91.6211L416.293 95.1607L411.11 93.2645L410.168 87.8286Z" fill="#1A0852"/>
<path d="M423.204 76.9287L427.432 73.3892L432.616 75.2854L433.557 80.7212L429.329 84.2608L424.145 82.3645L423.204 76.9287Z" fill="#1A0852"/>
<path d="M269.837 184.844L274.079 181.305L279.263 183.201L280.204 188.637L275.976 192.176L270.792 190.28L269.837 184.844Z" fill="#1A0852"/>
<path d="M282.887 173.959L287.115 170.419L292.298 172.315L293.24 177.751L289.011 181.291L283.828 179.394L282.887 173.959Z" fill="#1A0852"/>
<path d="M295.923 163.059L300.151 159.52L305.334 161.416L306.275 166.852L302.047 170.391L296.864 168.495L295.923 163.059Z" fill="#1A0852"/>
<path d="M308.958 152.173L313.187 148.634L318.37 150.53L319.311 155.966L315.083 159.505L309.9 157.609L308.958 152.173Z" fill="#1A0852"/>
<path d="M321.994 141.273L326.222 137.734L331.406 139.644L332.347 145.066L328.119 148.605L322.935 146.709L321.994 141.273Z" fill="#1A0852"/>
<path d="M335.03 130.388L339.258 126.848L344.442 128.744L345.397 134.18L341.155 137.72L335.971 135.824L335.03 130.388Z" fill="#1A0852"/>
<path d="M348.066 119.488L352.308 115.949L357.477 117.859L358.433 123.281L354.19 126.82L349.021 124.924L348.066 119.488Z" fill="#1A0852"/>
<path d="M361.102 108.603L365.344 105.063L370.513 106.959L371.468 112.395L367.24 115.935L362.057 114.038L361.102 108.603Z" fill="#1A0852"/>
<path d="M374.151 97.7032L378.38 94.1636L383.563 96.0738L384.504 101.496L380.276 105.035L375.093 103.139L374.151 97.7032Z" fill="#1A0852"/>
<path d="M387.187 86.8174L391.415 83.2778L396.599 85.174L397.54 90.6098L393.312 94.1494L388.128 92.2532L387.187 86.8174Z" fill="#1A0852"/>
<path d="M400.223 75.9176L404.451 72.3921L409.635 74.2883L410.576 79.7101L406.348 83.2496L401.164 81.3534L400.223 75.9176Z" fill="#1A0852"/>
<path d="M413.259 65.0318L417.487 61.4922L422.67 63.3884L423.611 68.8242L419.383 72.3638L414.2 70.4676L413.259 65.0318Z" fill="#1A0852"/>
<path d="M259.892 172.947L264.134 169.408L269.317 171.304L270.258 176.74L266.03 180.279L260.847 178.383L259.892 172.947Z" fill="#1A0852"/>
<path d="M272.941 162.048L277.17 158.522L282.353 160.418L283.294 165.84L279.066 169.38L273.883 167.483L272.941 162.048Z" fill="#1A0852"/>
<path d="M285.977 151.162L290.205 147.623L295.389 149.519L296.33 154.955L292.102 158.494L286.918 156.598L285.977 151.162Z" fill="#1A0852"/>
<path d="M299.013 140.262L303.241 136.737L308.425 138.633L309.366 144.069L305.138 147.594L299.954 145.698L299.013 140.262Z" fill="#1A0852"/>
<path d="M312.049 129.377L316.277 125.837L321.46 127.733L322.402 133.169L318.173 136.709L312.99 134.812L312.049 129.377Z" fill="#1A0852"/>
<path d="M325.085 118.477L329.313 114.951L334.496 116.847L335.451 122.283L331.209 125.809L326.026 123.913L325.085 118.477Z" fill="#1A0852"/>
<path d="M338.12 107.591L342.363 104.052L347.532 105.948L348.487 111.384L344.245 114.923L339.076 113.027L338.12 107.591Z" fill="#1A0852"/>
<path d="M351.156 96.6916L355.398 93.166L360.568 95.0622L361.523 100.498L357.281 104.024L352.111 102.127L351.156 96.6916Z" fill="#1A0852"/>
<path d="M364.192 85.8062L368.434 82.2666L373.618 84.1628L374.559 89.5986L370.331 93.1382L365.147 91.242L364.192 85.8062Z" fill="#1A0852"/>
<path d="M377.242 74.9064L381.47 71.3809L386.653 73.2771L387.595 78.7129L383.366 82.2384L378.183 80.3422L377.242 74.9064Z" fill="#1A0852"/>
<path d="M390.278 64.0206L394.506 60.481L399.689 62.3772L400.63 67.813L396.402 71.3526L391.219 69.4563L390.278 64.0206Z" fill="#1A0852"/>
<path d="M403.313 53.1208L407.542 49.5952L412.725 51.4914L413.666 56.9272L409.438 60.4528L404.254 58.5566L403.313 53.1208Z" fill="#1A0852"/>
<path d="M249.946 161.036L254.188 157.511L259.372 159.407L260.313 164.843L256.085 168.368L250.901 166.472L249.946 161.036Z" fill="#1A0852"/>
<path d="M262.996 150.15L267.224 146.611L272.408 148.507L273.349 153.943L269.121 157.482L263.937 155.586L262.996 150.15Z" fill="#1A0852"/>
<path d="M276.032 139.251L280.26 135.726L285.443 137.622L286.385 143.058L282.156 146.583L276.973 144.687L276.032 139.251Z" fill="#1A0852"/>
<path d="M289.068 128.365L293.296 124.826L298.479 126.722L299.42 132.158L295.192 135.697L290.009 133.801L289.068 128.365Z" fill="#1A0852"/>
<path d="M302.103 117.465L306.332 113.94L311.515 115.836L312.456 121.272L308.228 124.797L303.045 122.901L302.103 117.465Z" fill="#1A0852"/>
<path d="M315.139 106.58L319.367 103.041L324.551 104.937L325.506 110.373L321.264 113.912L316.08 112.016L315.139 106.58Z" fill="#1A0852"/>
<path d="M328.175 95.6803L332.417 92.1548L337.587 94.051L338.542 99.4868L334.3 103.012L329.13 101.116L328.175 95.6803Z" fill="#1A0852"/>
<path d="M341.211 84.7945L345.453 81.2549L350.622 83.1511L351.578 88.5869L347.335 92.1265L342.166 90.2303L341.211 84.7945Z" fill="#1A0852"/>
<path d="M354.247 73.9092L358.489 70.3696L363.672 72.2658L364.613 77.7016L360.385 81.2272L355.202 79.331L354.247 73.9092Z" fill="#1A0852"/>
<path d="M367.296 63.0093L371.525 59.4697L376.708 61.3659L377.649 66.8017L373.421 70.3413L368.238 68.4451L367.296 63.0093Z" fill="#1A0852"/>
<path d="M380.332 52.1236L384.56 48.584L389.744 50.4802L390.685 55.916L386.457 59.4556L381.273 57.5453L380.332 52.1236Z" fill="#1A0852"/>
<path d="M393.368 41.2242L397.596 37.6846L402.78 39.5808L403.721 45.0166L399.492 48.5562L394.309 46.66L393.368 41.2242Z" fill="#1A0852"/>
<path d="M240.001 149.139L244.243 145.6L249.426 147.496L250.368 152.932L246.139 156.471L240.956 154.575L240.001 149.139Z" fill="#1A0852"/>
<path d="M253.051 138.254L257.279 134.714L262.462 136.611L263.403 142.046L259.175 145.586L253.992 143.676L253.051 138.254Z" fill="#1A0852"/>
<path d="M266.086 127.354L270.315 123.814L275.498 125.711L276.439 131.146L272.211 134.686L267.028 132.79L266.086 127.354Z" fill="#1A0852"/>
<path d="M279.122 116.468L283.35 112.929L288.534 114.825L289.475 120.261L285.247 123.8L280.063 121.89L279.122 116.468Z" fill="#1A0852"/>
<path d="M292.158 105.569L296.386 102.029L301.57 103.926L302.511 109.361L298.283 112.901L293.099 111.005L292.158 105.569Z" fill="#1A0852"/>
<path d="M305.194 94.6831L309.422 91.1436L314.605 93.0398L315.561 98.4756L311.318 102.015L306.135 100.105L305.194 94.6831Z" fill="#1A0852"/>
<path d="M318.23 83.7832L322.472 80.2437L327.641 82.1399L328.596 87.5757L324.354 91.1152L319.185 89.219L318.23 83.7832Z" fill="#1A0852"/>
<path d="M331.265 72.8975L335.508 69.3579L340.677 71.2541L341.632 76.6899L337.39 80.2295L332.221 78.3333L331.265 72.8975Z" fill="#1A0852"/>
<path d="M344.301 61.9981L348.543 58.4585L353.727 60.3547L354.668 65.7905L350.44 69.3301L345.256 67.4339L344.301 61.9981Z" fill="#1A0852"/>
<path d="M357.351 51.1123L361.579 47.5728L366.763 49.469L367.704 54.9048L363.475 58.4444L358.292 56.5481L357.351 51.1123Z" fill="#1A0852"/>
<path d="M370.387 40.2124L374.615 36.6729L379.798 38.5691L380.739 44.0049L376.511 47.5445L371.328 45.6482L370.387 40.2124Z" fill="#1A0852"/>
<path d="M383.423 29.3272L387.651 25.7876L392.834 27.6838L393.775 33.1196L389.547 36.6592L384.364 34.763L383.423 29.3272Z" fill="#1A0852"/>
<path d="M230.055 137.242L234.298 133.703L239.467 135.599L240.422 141.035L236.194 144.574L231.011 142.678L230.055 137.242Z" fill="#1A0852"/>
<path d="M243.105 126.343L247.333 122.803L252.517 124.699L253.458 130.135L249.23 133.675L244.046 131.779L243.105 126.343Z" fill="#1A0852"/>
<path d="M256.141 115.457L260.369 111.917L265.553 113.814L266.494 119.249L262.266 122.789L257.082 120.893L256.141 115.457Z" fill="#1A0852"/>
<path d="M269.177 104.557L273.405 101.018L278.588 102.914L279.53 108.35L275.301 111.889L270.118 109.993L269.177 104.557Z" fill="#1A0852"/>
<path d="M282.213 93.6719L286.441 90.1323L291.624 92.0285L292.565 97.4643L288.337 101.004L283.154 99.1077L282.213 93.6719Z" fill="#1A0852"/>
<path d="M295.248 82.772L299.477 79.2324L304.66 81.1286L305.615 86.5644L301.373 90.104L296.189 88.2078L295.248 82.772Z" fill="#1A0852"/>
<path d="M308.284 71.8863L312.526 68.3467L317.696 70.2429L318.651 75.6787L314.409 79.2183L309.239 77.3221L308.284 71.8863Z" fill="#1A0852"/>
<path d="M321.32 60.9869L325.562 57.4473L330.732 59.3575L331.687 64.7793L327.444 68.3189L322.275 66.4227L321.32 60.9869Z" fill="#1A0852"/>
<path d="M334.356 50.1011L338.598 46.5615L343.781 48.4577L344.723 53.8935L340.494 57.4331L335.311 55.5369L334.356 50.1011Z" fill="#1A0852"/>
<path d="M347.406 39.2012L351.634 35.6616L356.817 37.5719L357.758 42.9936L353.53 46.5332L348.347 44.637L347.406 39.2012Z" fill="#1A0852"/>
<path d="M360.441 28.316L364.67 24.7764L369.853 26.6726L370.794 32.1084L366.566 35.648L361.382 33.7518L360.441 28.316Z" fill="#1A0852"/>
<path d="M220.11 125.332L224.352 121.792L229.522 123.702L230.477 129.124L226.235 132.664L221.065 130.767L220.11 125.332Z" fill="#1A0852"/>
<path d="M233.146 114.446L237.388 110.906L242.571 112.802L243.513 118.238L239.284 121.778L234.101 119.882L233.146 114.446Z" fill="#1A0852"/>
<path d="M246.196 103.546L250.424 100.006L255.607 101.917L256.548 107.338L252.32 110.878L247.137 108.982L246.196 103.546Z" fill="#1A0852"/>
<path d="M259.231 92.6602L263.46 89.1206L268.643 91.0168L269.584 96.4526L265.356 99.9922L260.173 98.096L259.231 92.6602Z" fill="#1A0852"/>
<path d="M272.267 81.7609L276.495 78.2354L281.679 80.1316L282.62 85.5533L278.392 89.0929L273.208 87.1967L272.267 81.7609Z" fill="#1A0852"/>
<path d="M285.303 70.875L289.531 67.3354L294.715 69.2317L295.67 74.6675L291.428 78.2071L286.244 76.3108L285.303 70.875Z" fill="#1A0852"/>
<path d="M298.339 59.9752L302.581 56.4497L307.75 58.3459L308.706 63.7817L304.463 67.3073L299.294 65.4111L298.339 59.9752Z" fill="#1A0852"/>
<path d="M311.375 49.0899L315.617 45.5503L320.786 47.4465L321.741 52.8823L317.499 56.4219L312.33 54.5257L311.375 49.0899Z" fill="#1A0852"/>
<path d="M324.41 38.1901L328.653 34.6646L333.836 36.5608L334.777 41.9966L330.549 45.5221L325.366 43.6259L324.41 38.1901Z" fill="#1A0852"/>
<path d="M337.46 27.3042L341.688 23.7646L346.872 25.6609L347.813 31.0967L343.585 34.6363L338.401 32.74L337.46 27.3042Z" fill="#1A0852"/>
</g>
<path d="M409.199 155.151C414.692 150.08 419.439 144.293 423.232 137.944C427.067 131.61 429.582 124.559 431.099 117.395C432.616 110.232 433.178 102.829 432.335 95.5677C431.506 88.3059 429.553 81.2127 426.575 74.597L424.159 69.723L421.266 65.116L420.549 63.9642L419.72 62.8826L418.077 60.7195L416.433 58.5565L414.635 56.5198C412.177 53.8511 409.536 51.3649 406.713 49.1176C403.861 46.8842 400.855 44.8757 397.694 43.1059C391.387 39.5803 384.49 37.1223 377.396 35.7739C370.302 34.4676 362.998 34.2429 355.848 35.2401C348.684 36.111 341.688 38.2038 335.185 41.322C331.912 42.853 328.821 44.7352 325.857 46.8C324.354 47.8113 322.949 48.949 321.531 50.0586L317.204 53.6263C305.657 63.1355 294.209 72.771 282.55 82.1397L247.685 110.4C235.955 119.685 224.324 129.095 212.496 138.282C212.44 138.338 212.342 138.324 212.3 138.267C212.258 138.211 212.258 138.127 212.314 138.071L281.145 80.4682L315.561 51.6739C318.44 49.2861 321.25 46.8 324.34 44.665C327.416 42.5159 330.619 40.5355 334.005 38.9202C340.747 35.6334 348.024 33.4141 355.483 32.459C362.928 31.4477 370.527 31.7427 377.902 33.1473C385.263 34.594 392.413 37.1925 398.945 40.8866C412.079 48.2046 422.558 60.0032 428.584 73.7261C431.548 80.6087 433.445 87.9547 434.175 95.4132C434.919 102.886 434.231 110.456 432.56 117.746C430.818 125.022 428.079 132.115 424.033 138.436C420.058 144.785 415.085 150.488 409.396 155.376C409.34 155.432 409.255 155.418 409.199 155.361C409.143 155.305 409.157 155.221 409.199 155.165V155.151Z" fill="white"/>
<path d="M179.471 160.685L133.987 198.679C112.003 217.052 109.067 249.779 127.441 271.761L155.17 304.937C173.544 326.919 206.274 329.841 228.257 311.483L273.742 273.488L179.486 160.685H179.471Z" fill="#4E74BF"/>
<path d="M140.729 276.269L135.251 269.71C118.254 249.371 120.979 219.102 141.319 202.106L178.067 171.416L183.545 177.961L146.798 208.652C126.457 225.648 123.746 255.931 140.743 276.269H140.729Z" fill="white"/>
<path d="M177.143 163.466L270.588 275.295C273.066 278.26 277.477 278.655 280.442 276.178L309.288 252.078C312.253 249.601 312.649 245.19 310.171 242.225L216.726 130.396C214.249 127.431 209.837 127.036 206.872 129.513L178.026 153.613C175.061 156.09 174.666 160.501 177.143 163.466Z" fill="#4E74BF"/>
<path d="M212.3 133.253L184.838 156.205C181.874 158.677 181.48 163.101 183.953 166.065L189.431 172.624C186.945 169.661 187.352 165.236 190.316 162.764L217.778 139.813L212.3 133.253Z" fill="white"/>
<path d="M177.252 163.382L224.085 219.201L270.694 275.202C270.694 275.202 270.736 275.357 270.68 275.399C270.624 275.441 270.539 275.441 270.497 275.399C266.185 271.073 262.125 266.564 257.925 262.153L245.732 248.599C237.613 239.567 229.774 230.283 221.95 220.999L210.361 206.939C206.583 202.191 202.691 197.528 199.011 192.682L187.844 178.271C184.262 173.355 180.539 168.551 177.055 163.536C177.013 163.466 177.027 163.382 177.083 163.326C177.14 163.284 177.224 163.298 177.266 163.354L177.252 163.382Z" fill="#1A0852"/>
<path d="M272.646 224.72V350.825C272.646 364.099 261.886 374.858 248.612 374.858H210.01C220.166 374.858 229.367 370.742 236.011 364.085C242.67 357.427 246.786 348.241 246.786 338.086V225.086C246.786 218.119 252.138 212.135 259.091 211.798C266.508 211.447 272.646 217.374 272.646 224.72Z" fill="#96B9FF"/>
<path d="M265.609 216.082H261.493C256.239 216.082 251.969 220.352 251.969 225.605C251.969 230.858 256.239 235.128 261.493 235.128H265.609" fill="#1A0852"/>
<path d="M275.133 225.605C275.133 230.858 270.862 235.128 265.609 235.128C260.355 235.128 256.085 230.858 256.085 225.605C256.085 220.352 260.355 216.082 265.609 216.082C270.862 216.082 275.133 220.352 275.133 225.605Z" fill="#96B9FF"/>
<path d="M256.015 225.605C255.958 221.813 258.389 218.133 261.928 216.714C265.426 215.197 269.767 216.054 272.45 218.779C275.175 221.462 276.018 225.802 274.515 229.299C273.096 232.825 269.416 235.269 265.623 235.213V235.072C266.55 234.918 267.435 234.693 268.278 234.37C269.107 234.005 269.879 233.555 270.553 233.008C271.93 231.926 272.97 230.493 273.517 228.892C273.784 228.091 273.911 227.277 274.009 226.448C274.051 225.619 274.009 224.791 273.84 223.99C273.475 222.389 272.646 220.914 271.481 219.776C270.343 218.61 268.882 217.768 267.266 217.416C266.466 217.248 265.637 217.192 264.808 217.248C263.993 217.346 263.165 217.487 262.364 217.74C260.777 218.287 259.33 219.313 258.262 220.703C257.714 221.377 257.251 222.15 256.885 222.979C256.548 223.821 256.324 224.706 256.169 225.633H256.029L256.015 225.605Z" fill="white"/>
<path d="M236.447 374.844H220.335V434.554H236.447V374.844Z" fill="#96B9FF"/>
<path d="M236.447 389.817L220.335 384.087V374.844H236.447V389.817Z" fill="#1A0852"/>
<mask id="mask4_369_389" style="mask-type:luminance" maskUnits="userSpaceOnUse" x="547" y="233" width="606" height="200">
<path d="M1152.09 233.117H547.318V432.556H1152.09V233.117Z" fill="white"/>
</mask>
<g mask="url(#mask4_369_389)">
<path d="M576.157 475.565C592.564 447.121 617.821 423.861 647.53 409.857C744.372 364.208 866.133 420.645 963.48 376.077C1021.94 349.319 1060.45 290.593 1117.82 261.588C1168.25 236.094 1231.13 236.993 1280.81 263.919" stroke="white" stroke-width="1.5" stroke-miterlimit="10"/>
<path d="M977.864 446.307C1091.17 436.657 1073.3 360.612 1181.15 362.059" stroke="white" stroke-width="1.5" stroke-miterlimit="10"/>
</g>
<path d="M411.931 283.991L422.747 309.934L450.757 312.196L429.42 330.483L435.938 357.831L411.931 343.195L387.938 357.831L394.456 330.483L373.105 312.196L401.129 309.934L411.931 283.991Z" fill="white"/>
<path d="M492.773 233.117L499.684 249.719L517.622 251.166L503.954 262.866L508.126 280.367L492.773 270.999L477.419 280.367L481.577 262.866L467.923 251.166L485.861 249.719L492.773 233.117Z" fill="white"/>
<path d="M199.355 22.7358L210.157 48.6928L238.181 50.9542L216.844 69.2421L223.348 96.5897L199.355 81.9397L175.362 96.5897L181.88 69.2421L160.529 50.9542L188.553 48.6928L199.355 22.7358Z" fill="white"/>
<path d="M115.325 107.265L122.236 123.867L140.174 125.314L126.506 137.014L130.678 154.515L115.325 145.147L99.9571 154.515L104.129 137.014L90.4753 125.314L108.399 123.867L115.325 107.265Z" fill="white"/>
<path d="M545.117 301.499V158.59H540.33L543.858 125.068H589.967C602.901 125.068 612.139 127.925 617.683 133.638C623.394 139.183 626.249 148.34 626.249 161.111V218.577C626.249 231.347 623.394 240.589 617.683 246.302C612.139 251.846 602.901 254.619 589.967 254.619H579.384V301.499H545.117ZM590.723 158.59H579.384V221.097H590.723C591.562 221.097 591.982 220.677 591.982 219.837V159.85C591.982 159.01 591.562 158.59 590.723 158.59Z" fill="white"/>
<path d="M719.944 266.465C719.944 279.235 717.088 288.477 711.377 294.19C705.834 299.735 696.595 302.507 683.661 302.507H672.575C659.641 302.507 650.318 299.735 644.607 294.19C639.064 288.477 636.292 279.235 636.292 266.465V160.102C636.292 147.164 639.064 137.923 644.607 132.378C650.318 126.833 659.641 124.06 672.575 124.06H683.661C696.595 124.06 705.834 126.833 711.377 132.378C717.088 137.923 719.944 147.164 719.944 160.102V266.465ZM671.819 157.582C670.979 157.582 670.559 158.002 670.559 158.842V267.725C670.559 268.565 670.979 268.985 671.819 268.985H684.417C685.257 268.985 685.677 268.565 685.677 267.725V158.842C685.677 158.002 685.257 157.582 684.417 157.582H671.819Z" fill="white"/>
<path d="M817.248 265.457C817.248 278.227 814.393 287.469 808.682 293.182C803.138 298.727 793.9 301.499 780.966 301.499H733.597V158.59H728.81L732.337 125.068H780.966C793.9 125.068 803.138 127.841 808.682 133.386C814.393 138.931 817.248 148.172 817.248 161.111V265.457ZM781.722 267.977C782.562 267.977 782.981 267.557 782.981 266.717V159.85C782.981 159.01 782.562 158.59 781.722 158.59H767.864V267.977H781.722Z" fill="white"/>
<path d="M830.76 301.499V158.59H825.972L829.5 125.068H877.625C890.559 125.068 899.797 127.925 905.341 133.638C911.052 139.183 913.907 148.34 913.907 161.111V194.128C913.907 199.169 913.487 203.622 912.647 207.487C916.847 213.032 918.947 221.433 918.947 232.691V265.457C918.947 278.227 916.091 287.469 910.38 293.182C904.837 298.727 895.598 301.499 882.664 301.499H830.76ZM878.381 196.649C879.22 196.649 879.64 196.229 879.64 195.389V159.85C879.64 159.01 879.22 158.59 878.381 158.59H865.027V196.649H878.381ZM884.68 231.431C884.68 230.591 884.26 230.171 883.42 230.171H865.027V267.977H883.42C884.26 267.977 884.68 267.557 884.68 266.717V231.431Z" fill="white"/>
<path d="M927.87 301.499L948.782 158.59H943.491L947.019 125.068H1005.73L1031.68 301.499H997.663L993.884 276.295H965.664L961.884 301.499H927.87ZM970.451 242.773H989.096L979.774 179.762L970.451 242.773Z" fill="white"/>
<path d="M1045.32 301.499V158.59H1040.53L1044.06 125.068H1090.17C1103.1 125.068 1112.34 127.925 1117.89 133.638C1123.6 139.183 1126.45 148.34 1126.45 161.111V218.577C1126.45 231.515 1123.68 240.757 1118.14 246.302L1133.76 301.499H1099.49L1086.39 254.619H1079.59V301.499H1045.32ZM1090.93 158.59H1079.59V221.097H1090.93C1091.77 221.097 1092.19 220.677 1092.19 219.837V159.85C1092.19 159.01 1091.77 158.59 1090.93 158.59Z" fill="white"/>
</g>
<defs>
<clipPath id="clip0_369_389">
<rect width="1152" height="432.522" fill="white"/>
</clipPath>
</defs>
</svg>
