<svg width="1152" height="433" viewBox="0 0 1152 433" fill="none" xmlns="http://www.w3.org/2000/svg">
<rect width="648.782" height="432.522" fill="#D9D9D9"/>
<g clip-path="url(#clip0_369_389)">
<path d="M1152.09 -5.6792H0.222168V432.556H1152.09V-5.6792Z" fill="#6C57D9"/>
<mask id="mask0_369_389" style="mask-type:luminance" maskUnits="userSpaceOnUse" x="0" y="-6" width="257" height="331">
<path d="M0.236206 324.093L256.218 324.093L256.218 -5.69312L0.236206 -5.69312L0.236206 324.093Z" fill="white"/>
</mask>
<g mask="url(#mask0_369_389)">
<path d="M-48.7042 297.714C-4.90505 317.308 47.0274 317.856 91.2198 299.189C145.821 276.126 186.024 226.782 240.583 203.634" stroke="white" stroke-width="1.5" stroke-miterlimit="10"/>
<path d="M-20.7784 82.6279C19.818 90.7886 44.2179 71.0961 68.5617 49.5074C93.4252 27.4552 132.701 -12.1966 186.586 -9.07841" stroke="white" stroke-width="1.5" stroke-miterlimit="10"/>
</g>
<mask id="mask1_369_389" style="mask-type:luminance" maskUnits="userSpaceOnUse" x="409" y="-6" width="622" height="157">
<path d="M409.655 150.919L1030.78 150.919V-5.69339L409.655 -5.69339V150.919Z" fill="white"/>
</mask>
<g mask="url(#mask1_369_389)">
<path d="M1020.97 -33.1814C1004.24 -1.52173 963.634 32.905 922.729 42.8777C816.644 68.7504 742.152 19.0697 622.765 55.814C566.647 73.0765 533.018 115.509 478.655 136.059" stroke="white" stroke-width="1.5" stroke-miterlimit="10"/>
<path d="M411.285 35.8127C494.388 59.5224 528.494 -14.4017 580.553 -6.53594" stroke="white" stroke-width="1.5" stroke-miterlimit="10"/>
</g>
<mask id="mask2_369_389" style="mask-type:luminance" maskUnits="userSpaceOnUse" x="11" y="-6" width="537" height="439">
<path d="M547.04 -6H11V432.235H547.04V-6Z" fill="white"/>
</mask>
<g mask="url(#mask2_369_389)">
<path d="M486.421 207.683C517.847 282.383 417.004 370.103 364.757 405.875C311.073 442.641 224.044 492.548 163.474 451.769C141.015 436.641 130.383 399.808 121.966 373.74C105.119 321.618 42.8439 318.853 25.1373 269.309C-16.7328 152.139 166.186 25.2098 253.994 -5.35458C312.845 -25.8382 391.525 -16.9387 412.265 53.0627C416.601 67.7073 416.843 82.8754 418.279 97.6676C423.152 147.749 468.486 165.065 486.421 207.683Z" fill="#8C75FF"/>
</g>
<path d="M159.135 224.72V350.825C159.135 364.099 169.895 374.858 183.17 374.858H221.772C211.615 374.858 202.415 370.742 195.77 364.085C189.112 357.427 184.996 348.241 184.996 338.086V225.086C184.996 218.119 179.644 212.135 172.691 211.798C165.274 211.447 159.135 217.374 159.135 224.72Z" fill="#1A0852"/>
<path d="M294.943 48.3311L187.398 138.169L276.752 245.101L384.297 155.263C413.825 130.584 417.772 86.6627 393.091 57.1239C380.758 42.3616 363.592 33.9902 345.836 32.403C328.081 30.8158 309.707 35.9988 294.943 48.3311Z" fill="#2A4987"/>
<mask id="mask3_369_389" style="mask-type:luminance" maskUnits="userSpaceOnUse" x="187" y="32" width="223" height="214">
<path d="M294.943 48.3311L187.398 138.169L276.752 245.101L384.297 155.263C413.825 130.584 417.772 86.6627 393.091 57.1239C380.758 42.3616 363.592 33.9902 345.836 32.403C328.081 30.8158 309.707 35.9988 294.943 48.3311Z" fill="white"/>
</mask>
<g mask="url(#mask3_369_389)">
<path d="M284.633 232.46L288.861 228.92L294.044 230.817L294.985 236.252L290.757 239.792L285.574 237.896L284.633 232.46Z" fill="#1A0852"/>
<path d="M297.668 221.561L301.897 218.021L307.08 219.931L308.021 225.353L303.793 228.893L298.61 226.996L297.668 221.561Z" fill="#1A0852"/>
<path d="M310.704 210.675L314.932 207.135L320.116 209.031L321.057 214.467L316.829 218.007L311.645 216.111L310.704 210.675Z" fill="#1A0852"/>
<path d="M323.74 199.775L327.968 196.235L333.152 198.146L334.093 203.567L329.865 207.107L324.681 205.211L323.74 199.775Z" fill="#1A0852"/>
<path d="M336.776 188.89L341.004 185.35L346.187 187.246L347.143 192.682L342.9 196.222L337.717 194.325L336.776 188.89Z" fill="#1A0852"/>
<path d="M349.812 177.99L354.054 174.45L359.223 176.36L360.178 181.782L355.936 185.322L350.767 183.426L349.812 177.99Z" fill="#1A0852"/>
<path d="M362.847 167.104L367.09 163.564L372.259 165.461L373.214 170.896L368.972 174.436L363.803 172.54L362.847 167.104Z" fill="#1A0852"/>
<path d="M375.883 156.204L380.125 152.679L385.309 154.575L386.25 159.997L382.022 163.536L376.838 161.64L375.883 156.204Z" fill="#1A0852"/>
<path d="M388.933 145.319L393.161 141.779L398.345 143.676L399.286 149.111L395.058 152.651L389.874 150.755L388.933 145.319Z" fill="#1A0852"/>
<path d="M401.969 134.419L406.197 130.894L411.38 132.79L412.322 138.226L408.093 141.751L402.91 139.855L401.969 134.419Z" fill="#1A0852"/>
<path d="M274.673 220.549L278.915 217.023L284.099 218.92L285.04 224.355L280.812 227.881L275.628 225.985L274.673 220.549Z" fill="#1A0852"/>
<path d="M287.723 209.664L291.951 206.124L297.135 208.02L298.076 213.456L293.848 216.996L288.664 215.099L287.723 209.664Z" fill="#1A0852"/>
<path d="M300.759 198.764L304.987 195.238L310.17 197.134L311.112 202.57L306.883 206.096L301.7 204.2L300.759 198.764Z" fill="#1A0852"/>
<path d="M313.795 187.878L318.023 184.339L323.206 186.235L324.147 191.671L319.919 195.21L314.736 193.314L313.795 187.878Z" fill="#1A0852"/>
<path d="M326.83 176.979L331.059 173.453L336.242 175.349L337.197 180.785L332.955 184.311L327.772 182.414L326.83 176.979Z" fill="#1A0852"/>
<path d="M339.866 166.093L344.108 162.553L349.278 164.449L350.233 169.885L345.991 173.425L340.821 171.529L339.866 166.093Z" fill="#1A0852"/>
<path d="M352.902 155.193L357.144 151.667L362.314 153.564L363.269 158.999L359.027 162.525L353.857 160.629L352.902 155.193Z" fill="#1A0852"/>
<path d="M365.938 144.308L370.18 140.768L375.363 142.664L376.305 148.1L372.076 151.64L366.893 149.743L365.938 144.308Z" fill="#1A0852"/>
<path d="M378.988 133.408L383.216 129.882L388.399 131.779L389.34 137.214L385.112 140.74L379.929 138.844L378.988 133.408Z" fill="#1A0852"/>
<path d="M392.023 122.522L396.252 118.982L401.435 120.879L402.376 126.314L398.148 129.854L392.965 127.958L392.023 122.522Z" fill="#1A0852"/>
<path d="M405.059 111.623L409.287 108.097L414.471 109.993L415.412 115.429L411.184 118.955L406 117.059L405.059 111.623Z" fill="#1A0852"/>
<path d="M264.728 208.652L268.97 205.113L274.153 207.009L275.095 212.445L270.866 215.984L265.683 214.088L264.728 208.652Z" fill="#1A0852"/>
<path d="M277.778 197.753L282.006 194.227L287.189 196.123L288.13 201.559L283.902 205.085L278.719 203.188L277.778 197.753Z" fill="#1A0852"/>
<path d="M290.813 186.867L295.042 183.327L300.225 185.223L301.166 190.659L296.938 194.199L291.755 192.303L290.813 186.867Z" fill="#1A0852"/>
<path d="M303.849 175.967L308.077 172.442L313.261 174.338L314.202 179.774L309.974 183.299L304.79 181.403L303.849 175.967Z" fill="#1A0852"/>
<path d="M316.885 165.082L321.113 161.542L326.297 163.438L327.252 168.874L323.01 172.414L317.826 170.517L316.885 165.082Z" fill="#1A0852"/>
<path d="M329.921 154.196L334.163 150.656L339.332 152.552L340.288 157.988L336.045 161.514L330.876 159.618L329.921 154.196Z" fill="#1A0852"/>
<path d="M342.957 143.296L347.199 139.757L352.368 141.653L353.323 147.089L349.081 150.628L343.912 148.732L342.957 143.296Z" fill="#1A0852"/>
<path d="M355.992 132.411L360.235 128.871L365.418 130.767L366.359 136.203L362.131 139.743L356.948 137.832L355.992 132.411Z" fill="#1A0852"/>
<path d="M369.042 121.511L373.27 117.971L378.454 119.867L379.395 125.303L375.167 128.843L369.983 126.947L369.042 121.511Z" fill="#1A0852"/>
<path d="M382.078 110.625L386.306 107.085L391.49 108.982L392.431 114.417L388.203 117.957L383.019 116.047L382.078 110.625Z" fill="#1A0852"/>
<path d="M395.114 99.7256L399.342 96.186L404.525 98.0823L405.467 103.518L401.238 107.058L396.055 105.161L395.114 99.7256Z" fill="#1A0852"/>
<path d="M408.15 88.8399L412.378 85.3003L417.561 87.1965L418.502 92.6323L414.274 96.1719L409.091 94.2616L408.15 88.8399Z" fill="#1A0852"/>
<path d="M254.782 196.755L259.025 193.216L264.208 195.112L265.149 200.548L260.921 204.087L255.738 202.177L254.782 196.755Z" fill="#1A0852"/>
<path d="M267.832 185.856L272.06 182.316L277.244 184.212L278.185 189.648L273.957 193.188L268.773 191.291L267.832 185.856Z" fill="#1A0852"/>
<path d="M280.868 174.97L285.096 171.43L290.28 173.326L291.221 178.762L286.993 182.302L281.809 180.392L280.868 174.97Z" fill="#1A0852"/>
<path d="M293.904 164.07L298.132 160.531L303.315 162.427L304.257 167.863L300.028 171.402L294.845 169.506L293.904 164.07Z" fill="#1A0852"/>
<path d="M306.94 153.185L311.168 149.645L316.351 151.541L317.292 156.977L313.064 160.517L307.881 158.62L306.94 153.185Z" fill="#1A0852"/>
<path d="M319.975 142.285L324.204 138.745L329.387 140.641L330.342 146.077L326.1 149.617L320.931 147.721L319.975 142.285Z" fill="#1A0852"/>
<path d="M333.011 131.399L337.253 127.86L342.423 129.756L343.378 135.192L339.136 138.731L333.966 136.835L333.011 131.399Z" fill="#1A0852"/>
<path d="M346.047 120.5L350.289 116.96L355.473 118.856L356.414 124.292L352.186 127.832L347.002 125.935L346.047 120.5Z" fill="#1A0852"/>
<path d="M359.097 109.614L363.325 106.074L368.508 107.97L369.45 113.406L365.221 116.946L360.038 115.05L359.097 109.614Z" fill="#1A0852"/>
<path d="M372.133 98.7144L376.361 95.1748L381.544 97.071L382.485 102.507L378.257 106.046L373.074 104.15L372.133 98.7144Z" fill="#1A0852"/>
<path d="M385.168 87.8286L389.397 84.2891L394.58 86.1853L395.521 91.6211L391.293 95.1607L386.11 93.2645L385.168 87.8286Z" fill="#1A0852"/>
<path d="M398.204 76.9287L402.432 73.3892L407.616 75.2854L408.557 80.7212L404.329 84.2608L399.145 82.3645L398.204 76.9287Z" fill="#1A0852"/>
<path d="M244.837 184.844L249.079 181.305L254.263 183.201L255.204 188.637L250.976 192.176L245.792 190.28L244.837 184.844Z" fill="#1A0852"/>
<path d="M257.887 173.959L262.115 170.419L267.298 172.315L268.24 177.751L264.011 181.291L258.828 179.394L257.887 173.959Z" fill="#1A0852"/>
<path d="M270.923 163.059L275.151 159.52L280.334 161.416L281.275 166.852L277.047 170.391L271.864 168.495L270.923 163.059Z" fill="#1A0852"/>
<path d="M283.958 152.173L288.187 148.634L293.37 150.53L294.311 155.966L290.083 159.505L284.9 157.609L283.958 152.173Z" fill="#1A0852"/>
<path d="M296.994 141.273L301.222 137.734L306.406 139.644L307.347 145.066L303.119 148.605L297.935 146.709L296.994 141.273Z" fill="#1A0852"/>
<path d="M310.03 130.388L314.258 126.848L319.442 128.744L320.397 134.18L316.155 137.72L310.971 135.824L310.03 130.388Z" fill="#1A0852"/>
<path d="M323.066 119.488L327.308 115.949L332.477 117.859L333.433 123.281L329.19 126.82L324.021 124.924L323.066 119.488Z" fill="#1A0852"/>
<path d="M336.102 108.603L340.344 105.063L345.513 106.959L346.468 112.395L342.24 115.935L337.057 114.038L336.102 108.603Z" fill="#1A0852"/>
<path d="M349.151 97.7032L353.38 94.1636L358.563 96.0738L359.504 101.496L355.276 105.035L350.093 103.139L349.151 97.7032Z" fill="#1A0852"/>
<path d="M362.187 86.8174L366.415 83.2778L371.599 85.174L372.54 90.6098L368.312 94.1494L363.128 92.2532L362.187 86.8174Z" fill="#1A0852"/>
<path d="M375.223 75.9176L379.451 72.3921L384.635 74.2883L385.576 79.7101L381.348 83.2496L376.164 81.3534L375.223 75.9176Z" fill="#1A0852"/>
<path d="M388.259 65.0318L392.487 61.4922L397.67 63.3884L398.611 68.8242L394.383 72.3638L389.2 70.4676L388.259 65.0318Z" fill="#1A0852"/>
<path d="M234.892 172.947L239.134 169.408L244.317 171.304L245.258 176.74L241.03 180.279L235.847 178.383L234.892 172.947Z" fill="#1A0852"/>
<path d="M247.941 162.048L252.17 158.522L257.353 160.418L258.294 165.84L254.066 169.38L248.883 167.483L247.941 162.048Z" fill="#1A0852"/>
<path d="M260.977 151.162L265.205 147.623L270.389 149.519L271.33 154.955L267.102 158.494L261.918 156.598L260.977 151.162Z" fill="#1A0852"/>
<path d="M274.013 140.262L278.241 136.737L283.425 138.633L284.366 144.069L280.138 147.594L274.954 145.698L274.013 140.262Z" fill="#1A0852"/>
<path d="M287.049 129.377L291.277 125.837L296.46 127.733L297.402 133.169L293.173 136.709L287.99 134.812L287.049 129.377Z" fill="#1A0852"/>
<path d="M300.085 118.477L304.313 114.951L309.496 116.847L310.451 122.283L306.209 125.809L301.026 123.913L300.085 118.477Z" fill="#1A0852"/>
<path d="M313.12 107.591L317.363 104.052L322.532 105.948L323.487 111.384L319.245 114.923L314.076 113.027L313.12 107.591Z" fill="#1A0852"/>
<path d="M326.156 96.6916L330.398 93.166L335.568 95.0622L336.523 100.498L332.281 104.024L327.111 102.127L326.156 96.6916Z" fill="#1A0852"/>
<path d="M339.192 85.8062L343.434 82.2666L348.618 84.1628L349.559 89.5986L345.331 93.1382L340.147 91.242L339.192 85.8062Z" fill="#1A0852"/>
<path d="M352.242 74.9064L356.47 71.3809L361.653 73.2771L362.595 78.7129L358.366 82.2384L353.183 80.3422L352.242 74.9064Z" fill="#1A0852"/>
<path d="M365.278 64.0206L369.506 60.481L374.689 62.3772L375.63 67.813L371.402 71.3526L366.219 69.4563L365.278 64.0206Z" fill="#1A0852"/>
<path d="M378.313 53.1208L382.542 49.5952L387.725 51.4914L388.666 56.9272L384.438 60.4528L379.254 58.5566L378.313 53.1208Z" fill="#1A0852"/>
<path d="M224.946 161.036L229.188 157.511L234.372 159.407L235.313 164.843L231.085 168.368L225.901 166.472L224.946 161.036Z" fill="#1A0852"/>
<path d="M237.996 150.15L242.224 146.611L247.408 148.507L248.349 153.943L244.121 157.482L238.937 155.586L237.996 150.15Z" fill="#1A0852"/>
<path d="M251.032 139.251L255.26 135.726L260.443 137.622L261.385 143.058L257.156 146.583L251.973 144.687L251.032 139.251Z" fill="#1A0852"/>
<path d="M264.068 128.365L268.296 124.826L273.479 126.722L274.42 132.158L270.192 135.697L265.009 133.801L264.068 128.365Z" fill="#1A0852"/>
<path d="M277.103 117.465L281.332 113.94L286.515 115.836L287.456 121.272L283.228 124.797L278.045 122.901L277.103 117.465Z" fill="#1A0852"/>
<path d="M290.139 106.58L294.367 103.041L299.551 104.937L300.506 110.373L296.264 113.912L291.08 112.016L290.139 106.58Z" fill="#1A0852"/>
<path d="M303.175 95.6803L307.417 92.1548L312.587 94.051L313.542 99.4868L309.3 103.012L304.13 101.116L303.175 95.6803Z" fill="#1A0852"/>
<path d="M316.211 84.7945L320.453 81.2549L325.622 83.1511L326.578 88.5869L322.335 92.1265L317.166 90.2303L316.211 84.7945Z" fill="#1A0852"/>
<path d="M329.247 73.9092L333.489 70.3696L338.672 72.2658L339.613 77.7016L335.385 81.2272L330.202 79.331L329.247 73.9092Z" fill="#1A0852"/>
<path d="M342.296 63.0093L346.525 59.4697L351.708 61.3659L352.649 66.8017L348.421 70.3413L343.238 68.4451L342.296 63.0093Z" fill="#1A0852"/>
<path d="M355.332 52.1236L359.56 48.584L364.744 50.4802L365.685 55.916L361.457 59.4556L356.273 57.5453L355.332 52.1236Z" fill="#1A0852"/>
<path d="M368.368 41.2242L372.596 37.6846L377.78 39.5808L378.721 45.0166L374.492 48.5562L369.309 46.66L368.368 41.2242Z" fill="#1A0852"/>
<path d="M215.001 149.139L219.243 145.6L224.426 147.496L225.368 152.932L221.139 156.471L215.956 154.575L215.001 149.139Z" fill="#1A0852"/>
<path d="M228.051 138.254L232.279 134.714L237.462 136.611L238.403 142.046L234.175 145.586L228.992 143.676L228.051 138.254Z" fill="#1A0852"/>
<path d="M241.086 127.354L245.315 123.814L250.498 125.711L251.439 131.146L247.211 134.686L242.028 132.79L241.086 127.354Z" fill="#1A0852"/>
<path d="M254.122 116.468L258.35 112.929L263.534 114.825L264.475 120.261L260.247 123.8L255.063 121.89L254.122 116.468Z" fill="#1A0852"/>
<path d="M267.158 105.569L271.386 102.029L276.57 103.926L277.511 109.361L273.283 112.901L268.099 111.005L267.158 105.569Z" fill="#1A0852"/>
<path d="M280.194 94.6831L284.422 91.1436L289.605 93.0398L290.561 98.4756L286.318 102.015L281.135 100.105L280.194 94.6831Z" fill="#1A0852"/>
<path d="M293.23 83.7832L297.472 80.2437L302.641 82.1399L303.596 87.5757L299.354 91.1152L294.185 89.219L293.23 83.7832Z" fill="#1A0852"/>
<path d="M306.265 72.8975L310.508 69.3579L315.677 71.2541L316.632 76.6899L312.39 80.2295L307.221 78.3333L306.265 72.8975Z" fill="#1A0852"/>
<path d="M319.301 61.9981L323.543 58.4585L328.727 60.3547L329.668 65.7905L325.44 69.3301L320.256 67.4339L319.301 61.9981Z" fill="#1A0852"/>
<path d="M332.351 51.1123L336.579 47.5728L341.763 49.469L342.704 54.9048L338.476 58.4444L333.292 56.5481L332.351 51.1123Z" fill="#1A0852"/>
<path d="M345.387 40.2124L349.615 36.6729L354.798 38.5691L355.739 44.0049L351.511 47.5445L346.328 45.6482L345.387 40.2124Z" fill="#1A0852"/>
<path d="M358.423 29.3272L362.651 25.7876L367.834 27.6838L368.775 33.1196L364.547 36.6592L359.364 34.763L358.423 29.3272Z" fill="#1A0852"/>
<path d="M205.055 137.242L209.298 133.703L214.467 135.599L215.422 141.035L211.194 144.574L206.011 142.678L205.055 137.242Z" fill="#1A0852"/>
<path d="M218.105 126.343L222.333 122.803L227.517 124.699L228.458 130.135L224.23 133.675L219.046 131.779L218.105 126.343Z" fill="#1A0852"/>
<path d="M231.141 115.457L235.369 111.917L240.553 113.814L241.494 119.249L237.266 122.789L232.082 120.893L231.141 115.457Z" fill="#1A0852"/>
<path d="M244.177 104.557L248.405 101.018L253.588 102.914L254.53 108.35L250.301 111.889L245.118 109.993L244.177 104.557Z" fill="#1A0852"/>
<path d="M257.213 93.6719L261.441 90.1323L266.624 92.0285L267.565 97.4643L263.337 101.004L258.154 99.1077L257.213 93.6719Z" fill="#1A0852"/>
<path d="M270.248 82.772L274.477 79.2324L279.66 81.1286L280.615 86.5644L276.373 90.104L271.189 88.2078L270.248 82.772Z" fill="#1A0852"/>
<path d="M283.284 71.8863L287.526 68.3467L292.696 70.2429L293.651 75.6787L289.409 79.2183L284.239 77.3221L283.284 71.8863Z" fill="#1A0852"/>
<path d="M296.32 60.9869L300.562 57.4473L305.732 59.3575L306.687 64.7793L302.444 68.3189L297.275 66.4227L296.32 60.9869Z" fill="#1A0852"/>
<path d="M309.356 50.1011L313.598 46.5615L318.781 48.4577L319.723 53.8935L315.494 57.4331L310.311 55.5369L309.356 50.1011Z" fill="#1A0852"/>
<path d="M322.406 39.2012L326.634 35.6616L331.817 37.5719L332.758 42.9936L328.53 46.5332L323.347 44.637L322.406 39.2012Z" fill="#1A0852"/>
<path d="M335.441 28.316L339.67 24.7764L344.853 26.6726L345.794 32.1084L341.566 35.648L336.382 33.7518L335.441 28.316Z" fill="#1A0852"/>
<path d="M195.11 125.332L199.352 121.792L204.522 123.702L205.477 129.124L201.235 132.664L196.065 130.767L195.11 125.332Z" fill="#1A0852"/>
<path d="M208.146 114.446L212.388 110.906L217.571 112.802L218.513 118.238L214.284 121.778L209.101 119.882L208.146 114.446Z" fill="#1A0852"/>
<path d="M221.196 103.546L225.424 100.006L230.607 101.917L231.548 107.338L227.32 110.878L222.137 108.982L221.196 103.546Z" fill="#1A0852"/>
<path d="M234.231 92.6602L238.46 89.1206L243.643 91.0168L244.584 96.4526L240.356 99.9922L235.173 98.096L234.231 92.6602Z" fill="#1A0852"/>
<path d="M247.267 81.7609L251.495 78.2354L256.679 80.1316L257.62 85.5533L253.392 89.0929L248.208 87.1967L247.267 81.7609Z" fill="#1A0852"/>
<path d="M260.303 70.875L264.531 67.3354L269.715 69.2317L270.67 74.6675L266.428 78.2071L261.244 76.3108L260.303 70.875Z" fill="#1A0852"/>
<path d="M273.339 59.9752L277.581 56.4497L282.75 58.3459L283.706 63.7817L279.463 67.3073L274.294 65.4111L273.339 59.9752Z" fill="#1A0852"/>
<path d="M286.375 49.0899L290.617 45.5503L295.786 47.4465L296.741 52.8823L292.499 56.4219L287.33 54.5257L286.375 49.0899Z" fill="#1A0852"/>
<path d="M299.41 38.1901L303.653 34.6646L308.836 36.5608L309.777 41.9966L305.549 45.5221L300.366 43.6259L299.41 38.1901Z" fill="#1A0852"/>
<path d="M312.46 27.3042L316.688 23.7646L321.872 25.6609L322.813 31.0967L318.585 34.6363L313.401 32.74L312.46 27.3042Z" fill="#1A0852"/>
</g>
<path d="M384.199 155.151C389.692 150.08 394.439 144.293 398.232 137.944C402.067 131.61 404.582 124.559 406.099 117.395C407.616 110.232 408.178 102.829 407.335 95.5677C406.506 88.3059 404.553 81.2127 401.575 74.597L399.159 69.723L396.266 65.116L395.549 63.9642L394.72 62.8826L393.077 60.7195L391.433 58.5565L389.635 56.5198C387.177 53.8511 384.536 51.3649 381.713 49.1176C378.861 46.8842 375.855 44.8757 372.694 43.1059C366.387 39.5803 359.49 37.1223 352.396 35.7739C345.302 34.4676 337.998 34.2429 330.848 35.2401C323.684 36.111 316.688 38.2038 310.185 41.322C306.912 42.853 303.821 44.7352 300.857 46.8C299.354 47.8113 297.949 48.949 296.531 50.0586L292.204 53.6263C280.657 63.1355 269.209 72.771 257.55 82.1397L222.685 110.4C210.955 119.685 199.324 129.095 187.496 138.282C187.44 138.338 187.342 138.324 187.3 138.267C187.258 138.211 187.258 138.127 187.314 138.071L256.145 80.4682L290.561 51.6739C293.44 49.2861 296.25 46.8 299.34 44.665C302.416 42.5159 305.619 40.5355 309.005 38.9202C315.747 35.6334 323.024 33.4141 330.483 32.459C337.928 31.4477 345.527 31.7427 352.902 33.1473C360.263 34.594 367.413 37.1925 373.945 40.8866C387.079 48.2046 397.558 60.0032 403.584 73.7261C406.548 80.6087 408.445 87.9547 409.175 95.4132C409.919 102.886 409.231 110.456 407.56 117.746C405.818 125.022 403.079 132.115 399.033 138.436C395.058 144.785 390.085 150.488 384.396 155.376C384.34 155.432 384.255 155.418 384.199 155.361C384.143 155.305 384.157 155.221 384.199 155.165V155.151Z" fill="white"/>
<path d="M154.471 160.685L108.987 198.679C87.0029 217.052 84.067 249.779 102.441 271.761L130.17 304.937C148.544 326.919 181.274 329.841 203.257 311.483L248.742 273.488L154.486 160.685H154.471Z" fill="#4E74BF"/>
<path d="M115.729 276.269L110.251 269.71C93.2539 249.371 95.979 219.102 116.319 202.106L153.067 171.416L158.545 177.961L121.798 208.652C101.457 225.648 98.7463 255.931 115.743 276.269H115.729Z" fill="white"/>
<path d="M152.143 163.466L245.588 275.295C248.066 278.26 252.477 278.655 255.442 276.178L284.288 252.078C287.253 249.601 287.649 245.19 285.171 242.225L191.726 130.396C189.249 127.431 184.837 127.036 181.872 129.513L153.026 153.613C150.061 156.09 149.666 160.501 152.143 163.466Z" fill="#4E74BF"/>
<path d="M187.3 133.253L159.838 156.205C156.874 158.677 156.48 163.101 158.953 166.065L164.431 172.624C161.945 169.661 162.352 165.236 165.316 162.764L192.778 139.813L187.3 133.253Z" fill="white"/>
<path d="M152.252 163.382L199.085 219.201L245.694 275.202C245.694 275.202 245.736 275.357 245.68 275.399C245.624 275.441 245.539 275.441 245.497 275.399C241.185 271.073 237.125 266.564 232.925 262.153L220.732 248.599C212.613 239.567 204.774 230.283 196.95 220.999L185.361 206.939C181.583 202.191 177.691 197.528 174.011 192.682L162.844 178.271C159.262 173.355 155.539 168.551 152.055 163.536C152.013 163.466 152.027 163.382 152.083 163.326C152.14 163.284 152.224 163.298 152.266 163.354L152.252 163.382Z" fill="#1A0852"/>
<path d="M247.646 224.72V350.825C247.646 364.099 236.886 374.858 223.612 374.858H185.01C195.166 374.858 204.367 370.742 211.011 364.085C217.67 357.427 221.786 348.241 221.786 338.086V225.086C221.786 218.119 227.138 212.135 234.091 211.798C241.508 211.447 247.646 217.374 247.646 224.72Z" fill="#96B9FF"/>
<path d="M240.609 216.082H236.493C231.239 216.082 226.969 220.352 226.969 225.605C226.969 230.858 231.239 235.128 236.493 235.128H240.609" fill="#1A0852"/>
<path d="M250.133 225.605C250.133 230.858 245.862 235.128 240.609 235.128C235.355 235.128 231.085 230.858 231.085 225.605C231.085 220.352 235.355 216.082 240.609 216.082C245.862 216.082 250.133 220.352 250.133 225.605Z" fill="#96B9FF"/>
<path d="M231.015 225.605C230.958 221.813 233.389 218.133 236.928 216.714C240.426 215.197 244.767 216.054 247.45 218.779C250.175 221.462 251.018 225.802 249.515 229.299C248.096 232.825 244.416 235.269 240.623 235.213V235.072C241.55 234.918 242.435 234.693 243.278 234.37C244.107 234.005 244.879 233.555 245.553 233.008C246.93 231.926 247.97 230.493 248.517 228.892C248.784 228.091 248.911 227.277 249.009 226.448C249.051 225.619 249.009 224.791 248.84 223.99C248.475 222.389 247.646 220.914 246.481 219.776C245.343 218.61 243.882 217.768 242.266 217.416C241.466 217.248 240.637 217.192 239.808 217.248C238.993 217.346 238.165 217.487 237.364 217.74C235.777 218.287 234.33 219.313 233.262 220.703C232.714 221.377 232.251 222.15 231.885 222.979C231.548 223.821 231.324 224.706 231.169 225.633H231.029L231.015 225.605Z" fill="white"/>
<path d="M211.447 374.844H195.335V434.554H211.447V374.844Z" fill="#96B9FF"/>
<path d="M211.447 389.817L195.335 384.087V374.844H211.447V389.817Z" fill="#1A0852"/>
<mask id="mask4_369_389" style="mask-type:luminance" maskUnits="userSpaceOnUse" x="547" y="233" width="606" height="200">
<path d="M1152.09 233.117H547.318V432.556H1152.09V233.117Z" fill="white"/>
</mask>
<g mask="url(#mask4_369_389)">
<path d="M576.157 475.565C592.564 447.121 617.821 423.861 647.53 409.857C744.372 364.208 866.133 420.645 963.48 376.077C1021.94 349.319 1060.45 290.593 1117.82 261.588C1168.25 236.094 1231.13 236.993 1280.81 263.919" stroke="white" stroke-width="1.5" stroke-miterlimit="10"/>
<path d="M977.864 446.307C1091.17 436.657 1073.3 360.612 1181.15 362.059" stroke="white" stroke-width="1.5" stroke-miterlimit="10"/>
</g>
<path d="M375.931 283.991L386.747 309.934L414.757 312.196L393.42 330.483L399.938 357.831L375.931 343.195L351.938 357.831L358.456 330.483L337.105 312.196L365.129 309.934L375.931 283.991Z" fill="white"/>
<path d="M456.773 233.117L463.684 249.719L481.622 251.166L467.954 262.866L472.126 280.367L456.773 270.999L441.419 280.367L445.577 262.866L431.923 251.166L449.861 249.719L456.773 233.117Z" fill="white"/>
<path d="M163.355 22.7358L174.157 48.6928L202.181 50.9542L180.844 69.2421L187.348 96.5897L163.355 81.9397L139.362 96.5897L145.88 69.2421L124.529 50.9542L152.553 48.6928L163.355 22.7358Z" fill="white"/>
<path d="M79.3247 107.265L86.236 123.867L104.174 125.314L90.5063 137.014L94.6783 154.515L79.3247 145.147L63.9571 154.515L68.1291 137.014L54.4753 125.314L72.3995 123.867L79.3247 107.265Z" fill="white"/>
<path d="M520.117 301.499V158.59H515.33L518.858 125.068H564.967C577.901 125.068 587.139 127.925 592.683 133.638C598.394 139.183 601.249 148.34 601.249 161.111V218.577C601.249 231.347 598.394 240.589 592.683 246.302C587.139 251.846 577.901 254.619 564.967 254.619H554.384V301.499H520.117ZM565.723 158.59H554.384V221.097H565.723C566.562 221.097 566.982 220.677 566.982 219.837V159.85C566.982 159.01 566.562 158.59 565.723 158.59Z" fill="white"/>
<path d="M694.944 266.465C694.944 279.235 692.088 288.477 686.377 294.19C680.834 299.735 671.595 302.507 658.661 302.507H647.575C634.641 302.507 625.318 299.735 619.607 294.19C614.064 288.477 611.292 279.235 611.292 266.465V160.102C611.292 147.164 614.064 137.923 619.607 132.378C625.318 126.833 634.641 124.06 647.575 124.06H658.661C671.595 124.06 680.834 126.833 686.377 132.378C692.088 137.923 694.944 147.164 694.944 160.102V266.465ZM646.819 157.582C645.979 157.582 645.559 158.002 645.559 158.842V267.725C645.559 268.565 645.979 268.985 646.819 268.985H659.417C660.257 268.985 660.677 268.565 660.677 267.725V158.842C660.677 158.002 660.257 157.582 659.417 157.582H646.819Z" fill="white"/>
<path d="M792.248 265.457C792.248 278.227 789.393 287.469 783.682 293.182C778.138 298.727 768.9 301.499 755.966 301.499H708.597V158.59H703.81L707.337 125.068H755.966C768.9 125.068 778.138 127.841 783.682 133.386C789.393 138.931 792.248 148.172 792.248 161.111V265.457ZM756.722 267.977C757.562 267.977 757.981 267.557 757.981 266.717V159.85C757.981 159.01 757.562 158.59 756.722 158.59H742.864V267.977H756.722Z" fill="white"/>
<path d="M805.76 301.499V158.59H800.972L804.5 125.068H852.625C865.559 125.068 874.797 127.925 880.341 133.638C886.052 139.183 888.907 148.34 888.907 161.111V194.128C888.907 199.169 888.487 203.622 887.647 207.487C891.847 213.032 893.947 221.433 893.947 232.691V265.457C893.947 278.227 891.091 287.469 885.38 293.182C879.837 298.727 870.598 301.499 857.664 301.499H805.76ZM853.381 196.649C854.22 196.649 854.64 196.229 854.64 195.389V159.85C854.64 159.01 854.22 158.59 853.381 158.59H840.027V196.649H853.381ZM859.68 231.431C859.68 230.591 859.26 230.171 858.42 230.171H840.027V267.977H858.42C859.26 267.977 859.68 267.557 859.68 266.717V231.431Z" fill="white"/>
<path d="M902.87 301.499L923.782 158.59H918.491L922.019 125.068H980.726L1006.68 301.499H972.663L968.884 276.295H940.664L936.884 301.499H902.87ZM945.451 242.773H964.096L954.774 179.762L945.451 242.773Z" fill="white"/>
<path d="M1020.32 301.499V158.59H1015.53L1019.06 125.068H1065.17C1078.1 125.068 1087.34 127.925 1092.89 133.638C1098.6 139.183 1101.45 148.34 1101.45 161.111V218.577C1101.45 231.515 1098.68 240.757 1093.14 246.302L1108.76 301.499H1074.49L1061.39 254.619H1054.59V301.499H1020.32ZM1065.93 158.59H1054.59V221.097H1065.93C1066.77 221.097 1067.19 220.677 1067.19 219.837V159.85C1067.19 159.01 1066.77 158.59 1065.93 158.59Z" fill="white"/>
</g>
<defs>
<clipPath id="clip0_369_389">
<rect width="1152" height="432.522" fill="white"/>
</clipPath>
</defs>
</svg>
