<?xml version="1.0" encoding="UTF-8"?>
<svg id="Capa_1" data-name="Capa 1" xmlns="http://www.w3.org/2000/svg" viewBox="0 0 3968.5 3968.5">
  <defs>
    <style>
      .cls-1 {
        fill: #fff;
      }

      .cls-2 {
        fill: #ed2c85;
      }
    </style>
  </defs>
  <g>
    <path class="cls-2" d="m1661.43,1366.2l-272.57-133.07c-13.83-6.75-19.56-23.43-12.81-37.26s23.43-19.56,37.26-12.81l272.57,133.07c13.83,6.75,19.56,23.43,12.81,37.26s-23.43,19.56-37.26,12.81Z"/>
    <path class="cls-2" d="m1525.14,1299.67c-13.83-6.75-19.56-23.43-12.81-37.26l100.13-205.1c6.75-13.83,23.43-19.56,37.26-12.81s19.56,23.43,12.81,37.26l-100.13,205.1c-6.75,13.83-23.43,19.56-37.26,12.81Z"/>
    <path class="cls-2" d="m1633.92,1080.31l-2.73-1.33c-62.66-30.59-109.66-83.75-132.34-149.7-22.68-65.94-18.32-136.77,12.27-199.43,6.75-13.83,23.43-19.56,37.26-12.81s19.56,23.43,12.81,37.26c-24.06,49.29-27.49,105-9.65,156.87,17.84,51.87,54.81,93.69,104.1,117.75l2.73,1.33c49.29,24.06,105,27.49,156.87,9.65,51.87-17.84,93.69-54.81,117.75-104.1,6.75-13.83,23.43-19.56,37.26-12.81,13.83,6.75,19.56,23.43,12.81,37.26-30.59,62.66-83.75,109.66-149.7,132.34-65.94,22.68-136.77,18.32-199.43-12.27Z"/>
    <path class="cls-2" d="m1814.46,867.89l15.61-31.97,72.88,35.58,15.71-32.18-72.88-35.58,15.61-31.97,72.88,35.58,15.71-32.18-72.88-35.58,15.61-31.97,72.88,35.58,15.71-32.18-72.88-35.58,15.61-31.97,72.88,35.58,2.89-5.91c36.38-74.52,5.46-164.41-69.05-200.79l-2.73-1.33c-74.52-36.38-164.41-5.46-200.79,69.05l-2.89,5.91,72.88,35.58-15.61,31.97-72.88-35.58-15.71,32.18,72.88,35.58-15.61,31.97-72.88-35.58-15.71,32.18,72.88,35.58-15.61,31.97-72.88-35.58-15.71,32.18,72.88,35.58-15.61,31.97-72.88-35.58-3.96,8.12c-36.38,74.52-5.46,164.41,69.05,200.79l2.73,1.33c74.52,36.38,164.42,5.46,200.79-69.05l3.96-8.12-72.88-35.58Z"/>
  </g>
  <g>
    <path class="cls-2" d="m2681.16,1197.75l-263.94,149.47c-13.39,7.58-30.39,2.87-37.97-10.51-7.58-13.39-2.88-30.39,10.51-37.97l263.94-149.47c13.39-7.58,30.39-2.87,37.97,10.51s2.88,30.39-10.51,37.97Z"/>
    <path class="cls-2" d="m2549.19,1272.48c-13.39,7.58-30.39,2.87-37.97-10.51l-112.47-198.6c-7.58-13.39-2.87-30.39,10.51-37.97,13.39-7.58,30.39-2.87,37.97,10.51l112.47,198.6c7.58,13.39,2.87,30.39-10.51,37.97Z"/>
    <path class="cls-2" d="m2375.21,962.16l-2.64,1.49c-72.16,40.86-163.77,15.49-204.64-56.66l-130.76-230.9c-40.86-72.16-15.49-163.77,56.66-204.64l2.64-1.49c72.16-40.86,163.77-15.49,204.64,56.66l130.76,230.9c40.86,72.16,15.49,163.77-56.66,204.64Z"/>
    <path class="cls-2" d="m2429.86,1058.68l-2.64,1.49c-60.68,34.36-131.11,43.04-198.31,24.43-67.2-18.61-123.14-62.27-157.5-122.95-7.58-13.39-2.87-30.39,10.51-37.97,13.39-7.58,30.39-2.87,37.97,10.51,27.03,47.73,71.02,82.07,123.89,96.71,52.86,14.64,108.26,7.81,155.99-19.22l2.64-1.49c47.73-27.03,82.07-71.02,96.71-123.89,14.64-52.86,7.81-108.26-19.22-155.98-7.58-13.39-2.87-30.39,10.51-37.97,13.39-7.58,30.39-2.87,37.97,10.51,34.36,60.68,43.04,131.1,24.43,198.31-18.61,67.2-62.27,123.14-122.95,157.5Z"/>
    <g>
      <g>
        <circle class="cls-1" cx="2151.03" cy="744.49" r="13.36" transform="translate(463.44 2271.98) rotate(-61.24)"/>
        <circle class="cls-1" cx="2201.39" cy="715.97" r="13.36" transform="translate(-66.98 1177.74) rotate(-29.52)"/>
        <circle class="cls-1" cx="2251.75" cy="687.45" r="13.36"/>
        <circle class="cls-1" cx="2302.11" cy="658.94" r="13.36"/>
      </g>
      <g>
        <circle class="cls-1" cx="2111.38" cy="734.33" r="13.36" transform="translate(-87.71 1135.77) rotate(-29.52)"/>
        <circle class="cls-1" cx="2161.75" cy="705.81" r="13.36"/>
        <circle class="cls-1" cx="2212.11" cy="677.29" r="13.36" transform="translate(-66.21 275.54) rotate(-7.02)"/>
        <circle class="cls-1" cx="2262.47" cy="648.77" r="13.36"/>
        <circle class="cls-1" cx="2312.83" cy="620.25" r="13.36" transform="translate(-5.34 1220.23) rotate(-29.52)"/>
      </g>
      <g>
        <circle class="cls-1" cx="2138.53" cy="782.27" r="13.36" transform="translate(-107.81 1155.38) rotate(-29.52)"/>
        <circle class="cls-1" cx="2188.89" cy="753.75" r="13.36" transform="translate(-87.22 1176.49) rotate(-29.52)"/>
        <circle class="cls-1" cx="2239.25" cy="725.23" r="13.36" transform="translate(-71.87 279.22) rotate(-7.02)"/>
        <circle class="cls-1" cx="2289.61" cy="696.71" r="13.36"/>
        <circle class="cls-1" cx="2339.97" cy="668.19" r="13.36"/>
      </g>
      <g>
        <circle class="cls-1" cx="2123.89" cy="696.55" r="13.36" transform="translate(1346.51 2792.21) rotate(-87.81)"/>
        <circle class="cls-1" cx="2174.25" cy="668.03" r="13.36"/>
        <circle class="cls-1" cx="2224.61" cy="639.52" r="13.36"/>
        <circle class="cls-1" cx="2274.97" cy="611" r="13.36"/>
      </g>
      <g>
        <circle class="cls-1" cx="2084.24" cy="686.39" r="13.36" transform="translate(866.55 2511.88) rotate(-74.52)"/>
        <circle class="cls-1" cx="2134.6" cy="657.87" r="13.36"/>
        <circle class="cls-1" cx="2184.96" cy="629.35" r="13.36" transform="translate(-60.55 271.86) rotate(-7.02)"/>
        <circle class="cls-1" cx="2235.32" cy="600.83" r="13.36" transform="translate(-5.84 1179.51) rotate(-29.52)"/>
        <circle class="cls-1" cx="2285.68" cy="572.32" r="13.36" transform="translate(14.75 1200.62) rotate(-29.52)"/>
      </g>
      <g>
        <circle class="cls-1" cx="2096.74" cy="648.61" r="13.36" transform="translate(-63.57 261.22) rotate(-7.02)"/>
        <circle class="cls-1" cx="2147.1" cy="620.09" r="13.36"/>
        <circle class="cls-1" cx="2197.46" cy="591.58" r="13.36"/>
        <circle class="cls-1" cx="2247.82" cy="563.06" r="13.36" transform="translate(14.4 1180.77) rotate(-29.52)"/>
      </g>
      <g>
        <circle class="cls-1" cx="2057.09" cy="638.45" r="13.36"/>
        <circle class="cls-1" cx="2107.45" cy="609.93" r="13.36"/>
        <circle class="cls-1" cx="2157.81" cy="581.41" r="13.36" transform="translate(609.91 2193.31) rotate(-61.24)"/>
        <circle class="cls-1" cx="2208.17" cy="552.89" r="13.36" transform="translate(14.26 1159.91) rotate(-29.52)"/>
        <circle class="cls-1" cx="2258.53" cy="524.38" r="13.36"/>
      </g>
      <g>
        <circle class="cls-1" cx="2069.59" cy="600.67" r="13.36" transform="translate(-57.91 257.54) rotate(-7.02)"/>
        <circle class="cls-1" cx="2119.95" cy="572.16" r="13.36"/>
        <circle class="cls-1" cx="2170.31" cy="543.64" r="13.36" transform="translate(13.91 1140.05) rotate(-29.52)"/>
        <circle class="cls-1" cx="2092.8" cy="524.22" r="13.36" transform="translate(13.41 1099.34) rotate(-29.52)"/>
        <circle class="cls-1" cx="2143.16" cy="495.7" r="13.36" transform="translate(34 1120.45) rotate(-29.52)"/>
        <circle class="cls-1" cx="2220.67" cy="515.12" r="13.36" transform="translate(34.5 1161.16) rotate(-29.52)"/>
      </g>
      <g>
        <circle class="cls-1" cx="2080.3" cy="561.99" r="13.36"/>
        <path class="cls-1" d="m2142.28,526.89c-3.63-6.42-11.78-8.68-18.2-5.04s-8.68,11.78-5.04,18.2c3.63,6.42,11.78,8.68,18.2,5.04s8.68-11.78,5.04-18.2Z"/>
        <circle class="cls-1" cx="2181.02" cy="504.96" r="13.36"/>
      </g>
    </g>
  </g>
</svg>