<svg width="63" height="44" viewBox="0 0 63 44" fill="none" xmlns="http://www.w3.org/2000/svg">
<g clip-path="url(#clip0_30_2)">
<path d="M13.7343 43.8645L0.745295 37.4905C0.0862649 37.1672 -0.186782 36.3682 0.13487 35.7058C0.456522 35.0433 1.25136 34.7689 1.91039 35.0922L14.8989 41.4662C15.558 41.7895 15.831 42.5884 15.5094 43.2509C15.1877 43.9133 14.3929 44.1878 13.7339 43.8645H13.7343Z" fill="#ED2C85"/>
<path d="M7.2398 40.6772C6.58077 40.3539 6.30772 39.555 6.62938 38.8925L11.4008 29.0683C11.7224 28.4059 12.5173 28.1314 13.1763 28.4547C13.8353 28.778 14.1084 29.577 13.7867 30.2395L9.01532 40.0636C8.69367 40.7261 7.89883 41.0006 7.2398 40.6772Z" fill="#ED2C85"/>
<path d="M12.4234 30.17L12.2933 30.1063C9.30744 28.641 7.06778 26.0947 5.98703 22.9357C4.90628 19.7772 5.11404 16.3845 6.57172 13.3831C6.89338 12.7207 7.68821 12.4462 8.34724 12.7695C9.00627 13.0929 9.27932 13.8918 8.95767 14.5543C7.81116 16.9152 7.64771 19.5837 8.49783 22.0683C9.34794 24.5528 11.1096 26.556 13.4584 27.7084L13.5885 27.7721C15.9373 28.9246 18.592 29.0889 21.0637 28.2344C23.5354 27.3798 25.5282 25.609 26.6748 23.248C26.9964 22.5856 27.7912 22.3111 28.4503 22.6344C29.1093 22.9578 29.3823 23.7567 29.0607 24.4192C27.603 27.4206 25.0698 29.6718 21.9272 30.7582C18.785 31.8446 15.4098 31.6357 12.4239 30.1705L12.4234 30.17Z" fill="#ED2C85"/>
<path d="M21.0265 19.9952L21.7704 18.4638L25.2433 20.1681L25.9919 18.6267L22.519 16.9224L23.2629 15.3911L26.7357 17.0954L27.4844 15.554L24.0115 13.8497L24.7553 12.3183L28.2282 14.0226L28.9768 12.4812L25.5039 10.7769L26.2478 9.24559L29.7207 10.9499L29.8584 10.6668C31.592 7.0973 30.1186 2.79161 26.568 1.04903L26.4379 0.98532C22.8869 -0.757263 18.6034 0.723789 16.8698 4.29278L16.7321 4.57587L20.205 6.28013L19.4612 7.81148L15.9883 6.10721L15.2397 7.64862L18.7125 9.35288L17.9687 10.8842L14.4958 9.17997L13.7472 10.7214L17.2201 12.4256L16.4762 13.957L13.0033 12.2527L12.2547 13.7941L15.7276 15.4984L14.9838 17.0297L11.5109 15.3255L11.3222 15.7144C9.58858 19.2839 11.062 23.5896 14.6126 25.3322L14.7426 25.3959C18.2937 27.1384 22.5776 25.6574 24.3107 22.0884L24.4994 21.6995L21.0265 19.9952Z" fill="#ED2C85"/>
<path d="M62.3267 35.7953L49.7494 42.9548C49.1113 43.3179 48.3012 43.0923 47.94 42.4514C47.5788 41.81 47.8028 40.9957 48.4408 40.6326L61.0181 33.4731C61.6562 33.11 62.4663 33.3356 62.8275 33.9765C63.1887 34.6174 62.9647 35.4322 62.3267 35.7953Z" fill="#ED2C85"/>
<path d="M56.038 39.3752C55.4 39.7383 54.5899 39.5127 54.2287 38.8718L48.8692 29.359C48.508 28.7176 48.7325 27.9033 49.37 27.5402C50.0081 27.1772 50.8182 27.4028 51.1794 28.0437L56.5388 37.5565C56.9 38.1979 56.6756 39.0122 56.038 39.3752Z" fill="#ED2C85"/>
<path d="M47.747 24.5111L47.6212 24.5825C44.1826 26.5397 39.8172 25.3245 37.8697 21.8685L31.6387 10.8085C29.6916 7.35208 30.9005 2.96401 34.3386 1.00636L34.4644 0.934988C37.903 -1.02219 42.2684 0.193024 44.216 3.64897L50.447 14.709C52.3941 18.1654 51.1851 22.5535 47.747 24.5111Z" fill="#ED2C85"/>
<path d="M50.3517 29.1344L50.2259 29.2057C47.3343 30.8516 43.9782 31.2673 40.776 30.3759C37.5737 29.4845 34.9081 27.3932 33.2708 24.4867C32.9096 23.8453 33.134 23.031 33.7716 22.6679C34.4096 22.3049 35.2197 22.5305 35.5809 23.1714C36.869 25.4576 38.9652 27.1025 41.4846 27.8037C44.0035 28.505 46.6434 28.1778 48.9178 26.8831L49.0436 26.8117C51.3181 25.517 52.9544 23.4099 53.6521 20.8775C54.3497 18.3455 54.0242 15.6919 52.7362 13.4061C52.375 12.7647 52.5994 11.9504 53.237 11.5874C53.8751 11.2243 54.6852 11.4499 55.0464 12.0908C56.6837 14.9973 57.0973 18.3704 56.2105 21.5897C55.3237 24.8086 53.2432 27.4881 50.3517 29.1339V29.1344Z" fill="#ED2C85"/>
<path d="M37.6233 14.3928C37.7925 14.083 37.6798 13.694 37.3716 13.5239C37.0633 13.3539 36.6763 13.4672 36.5071 13.777C36.338 14.0868 36.4507 14.4759 36.7589 14.6459C37.0672 14.816 37.4542 14.7026 37.6233 14.3928Z" fill="white"/>
<path d="M39.7789 13.2778C40.0849 13.1036 40.1924 12.7132 40.0192 12.4056C39.846 12.0981 39.4575 11.9899 39.1515 12.1641C38.8456 12.3382 38.738 12.7287 38.9112 13.0362C39.0845 13.3438 39.4729 13.4519 39.7789 13.2778Z" fill="white"/>
<path d="M41.8644 11.9926C42.216 11.9926 42.501 11.7061 42.501 11.3527C42.501 10.9993 42.216 10.7128 41.8644 10.7128C41.5128 10.7128 41.2277 10.9993 41.2277 11.3527C41.2277 11.7061 41.5128 11.9926 41.8644 11.9926Z" fill="white"/>
<path d="M44.2641 10.6266C44.6157 10.6266 44.9008 10.34 44.9008 9.98662C44.9008 9.63319 44.6157 9.34668 44.2641 9.34668C43.9125 9.34668 43.6275 9.63319 43.6275 9.98662C43.6275 10.34 43.9125 10.6266 44.2641 10.6266Z" fill="white"/>
<path d="M35.4893 14.1571C35.7953 13.9829 35.9028 13.5924 35.7296 13.2849C35.5564 12.9773 35.1679 12.8692 34.8619 13.0433C34.556 13.2175 34.4484 13.608 34.6216 13.9155C34.7949 14.2231 35.1833 14.3312 35.4893 14.1571Z" fill="white"/>
<path d="M37.5752 12.872C37.9268 12.872 38.2118 12.5855 38.2118 12.2321C38.2118 11.8787 37.9268 11.5922 37.5752 11.5922C37.2236 11.5922 36.9386 11.8787 36.9386 12.2321C36.9386 12.5855 37.2236 12.872 37.5752 12.872Z" fill="white"/>
<path d="M40.0526 11.5032C40.4015 11.46 40.6496 11.1407 40.6066 10.7899C40.5636 10.4391 40.2459 10.1898 39.897 10.2329C39.548 10.2761 39.2999 10.5955 39.3429 10.9463C39.3859 11.2971 39.7036 11.5464 40.0526 11.5032Z" fill="white"/>
<path d="M42.3747 10.1399C42.7263 10.1399 43.0113 9.85335 43.0113 9.49992C43.0113 9.1465 42.7263 8.85999 42.3747 8.85999C42.0231 8.85999 41.7381 9.1465 41.7381 9.49992C41.7381 9.85335 42.0231 10.1399 42.3747 10.1399Z" fill="white"/>
<path d="M45.0888 8.69282C45.3948 8.51868 45.5023 8.12819 45.3291 7.82064C45.1559 7.5131 44.7674 7.40495 44.4614 7.57909C44.1555 7.75324 44.0479 8.14373 44.2211 8.45127C44.3944 8.75882 44.7828 8.86696 45.0888 8.69282Z" fill="white"/>
<path d="M36.7832 16.4528C37.0891 16.2787 37.1967 15.8882 37.0235 15.5807C36.8502 15.2731 36.4617 15.165 36.1558 15.3391C35.8498 15.5132 35.7422 15.9037 35.9155 16.2113C36.0887 16.5188 36.4772 16.627 36.7832 16.4528Z" fill="white"/>
<path d="M39.1831 15.087C39.4891 14.9128 39.5967 14.5224 39.4234 14.2148C39.2502 13.9073 38.8617 13.7991 38.5558 13.9733C38.2498 14.1474 38.1422 14.5379 38.3155 14.8454C38.4887 15.153 38.8772 15.2611 39.1831 15.087Z" fill="white"/>
<path d="M41.3461 13.7996C41.6951 13.7564 41.9431 13.437 41.9002 13.0863C41.8572 12.7355 41.5395 12.4861 41.1905 12.5293C40.8415 12.5725 40.5935 12.8919 40.6364 13.2427C40.6794 13.5935 40.9971 13.8428 41.3461 13.7996Z" fill="white"/>
<path d="M43.6685 12.4361C44.0201 12.4361 44.3051 12.1496 44.3051 11.7962C44.3051 11.4428 44.0201 11.1562 43.6685 11.1562C43.3169 11.1562 43.0318 11.4428 43.0318 11.7962C43.0318 12.1496 43.3169 12.4361 43.6685 12.4361Z" fill="white"/>
<path d="M46.0682 11.07C46.4198 11.07 46.7049 10.7835 46.7049 10.4301C46.7049 10.0767 46.4198 9.79016 46.0682 9.79016C45.7166 9.79016 45.4316 10.0767 45.4316 10.4301C45.4316 10.7835 45.7166 11.07 46.0682 11.07Z" fill="white"/>
<path d="M36.4047 11.8121C36.4181 11.459 36.1442 11.1617 35.7928 11.1482C35.4415 11.1347 35.1458 11.4101 35.1323 11.7632C35.1189 12.1164 35.3928 12.4137 35.7442 12.4272C36.0955 12.4407 36.3912 12.1653 36.4047 11.8121Z" fill="white"/>
<path d="M38.1708 11.0623C38.5224 11.0623 38.8075 10.7758 38.8075 10.4224C38.8075 10.069 38.5224 9.78247 38.1708 9.78247C37.8192 9.78247 37.5342 10.069 37.5342 10.4224C37.5342 10.7758 37.8192 11.0623 38.1708 11.0623Z" fill="white"/>
<path d="M40.5706 9.69626C40.9222 9.69626 41.2072 9.40975 41.2072 9.05632C41.2072 8.70289 40.9222 8.41638 40.5706 8.41638C40.219 8.41638 39.934 8.70289 39.934 9.05632C39.934 9.40975 40.219 9.69626 40.5706 9.69626Z" fill="white"/>
<path d="M42.9704 8.33017C43.322 8.33017 43.607 8.04366 43.607 7.69023C43.607 7.3368 43.322 7.05029 42.9704 7.05029C42.6188 7.05029 42.3337 7.3368 42.3337 7.69023C42.3337 8.04366 42.6188 8.33017 42.9704 8.33017Z" fill="white"/>
<path d="M34.4968 11.4737C34.5906 11.133 34.392 10.7805 34.0532 10.6861C33.7143 10.5918 33.3636 10.7914 33.2697 11.1321C33.1759 11.4727 33.3745 11.8252 33.7133 11.9196C34.0522 12.0139 34.4029 11.8143 34.4968 11.4737Z" fill="white"/>
<path d="M36.2814 10.5758C36.633 10.5758 36.9181 10.2893 36.9181 9.93584C36.9181 9.58241 36.633 9.2959 36.2814 9.2959C35.9298 9.2959 35.6448 9.58241 35.6448 9.93584C35.6448 10.2893 35.9298 10.5758 36.2814 10.5758Z" fill="white"/>
<path d="M38.759 9.20684C39.108 9.16365 39.3561 8.84427 39.3131 8.49349C39.2701 8.14271 38.9524 7.89337 38.6034 7.93656C38.2545 7.97975 38.0064 8.29913 38.0494 8.64991C38.0923 9.00069 38.4101 9.25003 38.759 9.20684Z" fill="white"/>
<path d="M41.3954 7.76277C41.7014 7.58862 41.809 7.19814 41.6357 6.89059C41.4625 6.58304 41.074 6.4749 40.7681 6.64904C40.4621 6.82318 40.3545 7.21367 40.5278 7.52122C40.701 7.82877 41.0895 7.93691 41.3954 7.76277Z" fill="white"/>
<path d="M43.7952 6.39655C44.1012 6.22241 44.2087 5.83192 44.0355 5.52438C43.8622 5.21683 43.4738 5.10869 43.1678 5.28283C42.8619 5.45697 42.7543 5.84746 42.9275 6.15501C43.1008 6.46255 43.4892 6.5707 43.7952 6.39655Z" fill="white"/>
<path d="M34.5549 10.1292C34.9039 10.086 35.1519 9.76663 35.109 9.41585C35.066 9.06507 34.7483 8.81573 34.3993 8.85892C34.0503 8.90212 33.8023 9.2215 33.8452 9.57227C33.8882 9.92305 34.2059 10.1724 34.5549 10.1292Z" fill="white"/>
<path d="M36.8771 8.76608C37.2287 8.76608 37.5137 8.47957 37.5137 8.12614C37.5137 7.77272 37.2287 7.48621 36.8771 7.48621C36.5255 7.48621 36.2404 7.77272 36.2404 8.12614C36.2404 8.47957 36.5255 8.76608 36.8771 8.76608Z" fill="white"/>
<path d="M39.2768 7.39999C39.6284 7.39999 39.9135 7.11348 39.9135 6.76005C39.9135 6.40663 39.6284 6.12012 39.2768 6.12012C38.9252 6.12012 38.6402 6.40663 38.6402 6.76005C38.6402 7.11348 38.9252 7.39999 39.2768 7.39999Z" fill="white"/>
<path d="M41.9912 5.95283C42.2971 5.77869 42.4047 5.3882 42.2315 5.08065C42.0582 4.77311 41.6698 4.66496 41.3638 4.8391C41.0579 5.01325 40.9503 5.40374 41.1235 5.71128C41.2968 6.01883 41.6852 6.12697 41.9912 5.95283Z" fill="white"/>
<path d="M32.5879 9.64548C32.9395 9.64548 33.2245 9.35897 33.2245 9.00554C33.2245 8.65211 32.9395 8.3656 32.5879 8.3656C32.2363 8.3656 31.9513 8.65211 31.9513 9.00554C31.9513 9.35897 32.2363 9.64548 32.5879 9.64548Z" fill="white"/>
<path d="M34.9877 8.27939C35.3393 8.27939 35.6243 7.99288 35.6243 7.63945C35.6243 7.28602 35.3393 6.99951 34.9877 6.99951C34.6361 6.99951 34.351 7.28602 34.351 7.63945C34.351 7.99288 34.6361 8.27939 34.9877 8.27939Z" fill="white"/>
<path d="M37.9457 6.58178C38.1148 6.27195 38.0021 5.88293 37.6939 5.71288C37.3857 5.54284 36.9986 5.65615 36.8295 5.96598C36.6603 6.27581 36.773 6.66483 37.0813 6.83488C37.3895 7.00493 37.7765 6.89161 37.9457 6.58178Z" fill="white"/>
<path d="M40.1022 5.46565C40.4082 5.2915 40.5158 4.90102 40.3425 4.59347C40.1693 4.28592 39.7808 4.17778 39.4749 4.35192C39.1689 4.52606 39.0613 4.91655 39.2346 5.2241C39.4078 5.53165 39.7963 5.63979 40.1022 5.46565Z" fill="white"/>
<path d="M42.1874 4.18112C42.539 4.18112 42.8241 3.89461 42.8241 3.54118C42.8241 3.18775 42.539 2.90125 42.1874 2.90125C41.8358 2.90125 41.5508 3.18775 41.5508 3.54118C41.5508 3.89461 41.8358 4.18112 42.1874 4.18112Z" fill="white"/>
<path d="M33.2619 7.83282C33.6108 7.78962 33.8589 7.47024 33.8159 7.11947C33.7729 6.76869 33.4552 6.51934 33.1062 6.56254C32.7573 6.60573 32.5092 6.92511 32.5522 7.27589C32.5952 7.62667 32.9129 7.87601 33.2619 7.83282Z" fill="white"/>
<path d="M35.5838 6.46982C35.9354 6.46982 36.2204 6.18331 36.2204 5.82988C36.2204 5.47645 35.9354 5.18994 35.5838 5.18994C35.2322 5.18994 34.9472 5.47645 34.9472 5.82988C34.9472 6.18331 35.2322 6.46982 35.5838 6.46982Z" fill="white"/>
<path d="M38.2978 5.02253C38.6037 4.84839 38.7113 4.4579 38.5381 4.15035C38.3648 3.84281 37.9764 3.73466 37.6704 3.90881C37.3644 4.08295 37.2569 4.47344 37.4301 4.78098C37.6033 5.08853 37.9918 5.19668 38.2978 5.02253Z" fill="white"/>
<path d="M34.6044 4.09199C34.9104 3.91785 35.0179 3.52736 34.8447 3.21981C34.6715 2.91227 34.283 2.80412 33.977 2.97826C33.6711 3.15241 33.5635 3.5429 33.7367 3.85044C33.91 4.15799 34.2984 4.26613 34.6044 4.09199Z" fill="white"/>
<path d="M37.0042 2.72578C37.3101 2.55164 37.4177 2.16115 37.2445 1.8536C37.0712 1.54606 36.6827 1.43791 36.3768 1.61205C36.0708 1.7862 35.9632 2.17668 36.1365 2.48423C36.3097 2.79178 36.6982 2.89992 37.0042 2.72578Z" fill="white"/>
<path d="M40.6975 3.65632C41.0035 3.48218 41.1111 3.09169 40.9378 2.78414C40.7646 2.4766 40.3761 2.36845 40.0701 2.54259C39.7642 2.71674 39.6566 3.10723 39.8298 3.41477C40.0031 3.72232 40.3916 3.83046 40.6975 3.65632Z" fill="white"/>
<path d="M33.6944 5.98312C34.046 5.98312 34.331 5.69661 34.331 5.34318C34.331 4.98976 34.046 4.70325 33.6944 4.70325C33.3428 4.70325 33.0578 4.98976 33.0578 5.34318C33.0578 5.69661 33.3428 5.98312 33.6944 5.98312Z" fill="white"/>
<path d="M36.6479 3.66188C36.4749 3.35436 36.0865 3.24611 35.7806 3.42046C35.4747 3.59482 35.367 3.98472 35.5404 4.29224C35.7134 4.59975 36.1018 4.708 36.4077 4.53365C36.7136 4.35929 36.8213 3.96939 36.6479 3.66188Z" fill="white"/>
<path d="M38.4939 3.25094C38.8455 3.25094 39.1305 2.96443 39.1305 2.61101C39.1305 2.25758 38.8455 1.97107 38.4939 1.97107C38.1423 1.97107 37.8573 2.25758 37.8573 2.61101C37.8573 2.96443 38.1423 3.25094 38.4939 3.25094Z" fill="white"/>
</g>
<defs>
<clipPath id="clip0_30_2">
<rect width="63" height="44" fill="white"/>
</clipPath>
</defs>
</svg>
